Geologisk-LightCutItalic.ufo
<glyph name="quotesingle" format="2">
  <advance width="420"/>
  <unicode hex="0027"/>
  <outline>
    <contour>
      <point x="262" y="912" type="line"/>
      <point x="352" y="912" type="line"/>
      <point x="474" y="1440" type="line"/>
      <point x="364" y="1440" type="line"/>
    </contour>
  </outline>
</glyph>
<glyph name="parenleft" format="2">
  <advance width="686"/>
  <unicode hex="0028"/>
  <guideline x="325" y="705" angle="329.7436"/>
  <guideline x="130" y="-215" angle="205.5139"/>
  <outline>
    <contour>
      <point x="260" y="-430" type="curve"/>
      <point x="346" y="-390" type="line"/>
      <point x="290" y="-238"/>
      <point x="260" y="-68"/>
      <point x="260" y="112" type="curve" smooth="yes"/>
      <point x="260" y="548"/>
      <point x="426" y="1052"/>
      <point x="730" y="1364" type="curve"/>
      <point x="650" y="1410" type="line"/>
      <point x="340" y="1072"/>
      <point x="160" y="590"/>
      <point x="160" y="128" type="curve" smooth="yes"/>
      <point x="160" y="-68"/>
      <point x="192" y="-258"/>
    </contour>
  </outline>
</glyph>
<glyph name="parenright" format="2">
  <advance width="686"/>
  <unicode hex="0029"/>
  <outline>
    <contour>
      <point x="40" y="-430" type="line"/>
      <point x="350" y="-92"/>
      <point x="530" y="390"/>
      <point x="530" y="852" type="curve" smooth="yes"/>
      <point x="530" y="1048"/>
      <point x="498" y="1238"/>
      <point x="430" y="1410" type="curve"/>
      <point x="344" y="1370" type="line"/>
      <point x="400" y="1218"/>
      <point x="430" y="1048"/>
      <point x="430" y="868" type="curve" smooth="yes"/>
      <point x="430" y="432"/>
      <point x="264" y="-72"/>
      <point x="-40" y="-384" type="curve"/>
    </contour>
  </outline>
</glyph>
<glyph name="asterisk" format="2">
  <advance width="1060"/>
  <unicode hex="002A"/>
  <outline>
    <contour>
      <point x="412" y="740" type="line"/>
      <point x="636" y="956" type="line"/>
      <point x="748" y="670" type="line"/>
      <point x="852" y="714" type="line"/>
      <point x="714" y="994" type="line"/>
      <point x="1024" y="1012" type="line"/>
      <point x="1012" y="1126" type="line"/>
      <point x="706" y="1082" type="line"/>
      <point x="780" y="1380" type="line"/>
      <point x="674" y="1404" type="line"/>
      <point x="620" y="1096" type="line"/>
      <point x="358" y="1262" type="line"/>
      <point x="300" y="1164" type="line"/>
      <point x="576" y="1020" type="line"/>
      <point x="340" y="822" type="line"/>
    </contour>
  </outline>
</glyph>
<glyph name="comma" format="2">
  <advance width="504"/>
  <unicode hex="002C"/>
  <outline>
    <contour>
      <point x="-8" y="-246" type="line"/>
      <point x="166" y="-158"/>
      <point x="268" y="-50"/>
      <point x="268" y="70" type="curve" smooth="yes"/>
      <point x="268" y="134"/>
      <point x="230" y="178"/>
      <point x="166" y="178" type="curve" smooth="yes"/>
      <point x="104" y="178"/>
      <point x="52" y="128"/>
      <point x="52" y="62" type="curve" smooth="yes"/>
      <point x="52" y="10"/>
      <point x="90" y="-26"/>
      <point x="148" y="-24" type="curve"/>
      <point x="132" y="-78"/>
      <point x="34" y="-138"/>
      <point x="-54" y="-180" type="curve"/>
    </contour>
  </outline>
</glyph>
<glyph name="hyphen" format="2">
  <advance width="766"/>
  <unicode hex="002D"/>
  <outline>
    <contour>
      <point x="144" y="512" type="line"/>
      <point x="636" y="512" type="line"/>
      <point x="656" y="608" type="line"/>
      <point x="164" y="608" type="line"/>
    </contour>
  </outline>
</glyph>
<glyph name="slash" format="2">
  <advance width="882"/>
  <unicode hex="002F"/>
  <guideline x="458" y="716" angle="327.88009999999997"/>
  <guideline x="-22" y="-228" angle="327.88009999999997"/>
  <outline>
    <contour>
      <point x="-72" y="-430" type="line"/>
      <point x="1048" y="1354" type="line"/>
      <point x="960" y="1410" type="line"/>
      <point x="-162" y="-378" type="line"/>
    </contour>
  </outline>
</glyph>
<glyph name="one" format="2">
  <advance width="792"/>
  <unicode hex="0031"/>
  <guideline x="106" y="567" angle="108.9046"/>
  <guideline x="106" y="567" angle="257.9983"/>
  <outline>
    <contour>
      <point x="378" y="0" type="line"/>
      <point x="490" y="0" type="line"/>
      <point x="794" y="1430" type="line"/>
      <point x="784" y="1430" type="line"/>
      <point x="234" y="1238" type="line"/>
      <point x="212" y="1134" type="line"/>
      <point x="650" y="1284" type="line"/>
    </contour>
  </outline>
</glyph>
<glyph name="three" format="2">
  <advance width="1156"/>
  <unicode hex="0033"/>
  <guideline x="47" y="110" angle="77.9504"/>
  <outline>
    <contour>
      <point x="470" y="-30" type="curve" smooth="yes"/>
      <point x="766" y="-30"/>
      <point x="1002" y="170"/>
      <point x="1002" y="454" type="curve" smooth="yes"/>
      <point x="1002" y="690"/>
      <point x="792" y="812"/>
      <point x="528" y="818" type="curve"/>
      <point x="1124" y="1302" type="line"/>
      <point x="1144" y="1400" type="line"/>
      <point x="306" y="1400" type="line"/>
      <point x="260" y="1292" type="line"/>
      <point x="952" y="1292" type="line"/>
      <point x="344" y="790" type="line"/>
      <point x="366" y="716" type="line"/>
      <point x="406" y="722"/>
      <point x="446" y="724"/>
      <point x="482" y="724" type="curve" smooth="yes"/>
      <point x="726" y="724"/>
      <point x="876" y="618"/>
      <point x="876" y="444" type="curve" smooth="yes"/>
      <point x="876" y="224"/>
      <point x="708" y="82"/>
      <point x="476" y="82" type="curve" smooth="yes"/>
      <point x="332" y="82"/>
      <point x="178" y="132"/>
      <point x="74" y="220" type="curve"/>
      <point x="48" y="98" type="line"/>
      <point x="144" y="24"/>
      <point x="310" y="-30"/>
    </contour>
  </outline>
</glyph>
<glyph name="six" format="2">
  <advance width="1280"/>
  <unicode hex="0036"/>
  <guideline x="598" y="715" angle="78.0016"/>
  <outline>
    <contour>
      <point x="604" y="-30" type="curve" smooth="yes"/>
      <point x="898" y="-30"/>
      <point x="1150" y="202"/>
      <point x="1150" y="482" type="curve" smooth="yes"/>
      <point x="1150" y="712"/>
      <point x="960" y="880"/>
      <point x="694" y="880" type="curve" smooth="yes"/>
      <point x="536" y="880"/>
      <point x="394" y="814"/>
      <point x="290" y="696" type="curve"/>
      <point x="402" y="998"/>
      <point x="694" y="1266"/>
      <point x="1170" y="1310" type="curve"/>
      <point x="1196" y="1430" type="line"/>
      <point x="624" y="1366"/>
      <point x="118" y="974"/>
      <point x="118" y="440" type="curve" smooth="yes"/>
      <point x="118" y="144"/>
      <point x="312" y="-30"/>
    </contour>
    <contour>
      <point x="614" y="84" type="curve" smooth="yes"/>
      <point x="388" y="84"/>
      <point x="246" y="214"/>
      <point x="246" y="394" type="curve" smooth="yes"/>
      <point x="246" y="614"/>
      <point x="436" y="778"/>
      <point x="660" y="778" type="curve" smooth="yes"/>
      <point x="872" y="778"/>
      <point x="1022" y="638"/>
      <point x="1022" y="458" type="curve" smooth="yes"/>
      <point x="1022" y="252"/>
      <point x="844" y="84"/>
    </contour>
  </outline>
</glyph>
<glyph name="eight" format="2">
  <advance width="1238"/>
  <unicode hex="0038"/>
  <outline>
    <contour>
      <point x="570" y="-30" type="curve" smooth="yes"/>
      <point x="852" y="-30"/>
      <point x="1084" y="156"/>
      <point x="1084" y="414" type="curve" smooth="yes"/>
      <point x="1084" y="556"/>
      <point x="1004" y="654"/>
      <point x="874" y="720" type="curve"/>
      <point x="1040" y="766"/>
      <point x="1184" y="896"/>
      <point x="1184" y="1084" type="curve" smooth="yes"/>
      <point x="1184" y="1272"/>
      <point x="1018" y="1430"/>
      <point x="766" y="1430" type="curve" smooth="yes"/>
      <point x="510" y="1430"/>
      <point x="302" y="1264"/>
      <point x="302" y="1036" type="curve" smooth="yes"/>
      <point x="302" y="908"/>
      <point x="384" y="804"/>
      <point x="474" y="760" type="curve"/>
      <point x="266" y="706"/>
      <point x="112" y="562"/>
      <point x="112" y="346" type="curve" smooth="yes"/>
      <point x="112" y="136"/>
      <point x="278" y="-30"/>
    </contour>
    <contour>
      <point x="578" y="82" type="curve" smooth="yes"/>
      <point x="390" y="82"/>
      <point x="236" y="178"/>
      <point x="236" y="350" type="curve" smooth="yes"/>
      <point x="236" y="554"/>
      <point x="394" y="680"/>
      <point x="616" y="680" type="curve" smooth="yes"/>
      <point x="814" y="680"/>
      <point x="960" y="582"/>
      <point x="960" y="408" type="curve" smooth="yes"/>
      <point x="960" y="204"/>
      <point x="790" y="82"/>
    </contour>
    <contour>
      <point x="730" y="792" type="curve" smooth="yes"/>
      <point x="546" y="792"/>
      <point x="422" y="882"/>
      <point x="422" y="1038" type="curve" smooth="yes"/>
      <point x="422" y="1198"/>
      <point x="562" y="1318"/>
      <point x="758" y="1318" type="curve" smooth="yes"/>
      <point x="946" y="1318"/>
      <point x="1064" y="1210"/>
      <point x="1064" y="1064" type="curve" smooth="yes"/>
      <point x="1064" y="894"/>
      <point x="918" y="792"/>
    </contour>
  </outline>
</glyph>
<glyph name="nine" format="2">
  <advance width="1253"/>
  <unicode hex="0039"/>
  <guideline x="101" y="-15" angle="78.0016"/>
  <outline>
    <contour>
      <point x="182" y="-30" type="line"/>
      <point x="742" y="36"/>
      <point x="1228" y="396"/>
      <point x="1228" y="972" type="curve" smooth="yes"/>
      <point x="1228" y="1260"/>
      <point x="1040" y="1430"/>
      <point x="756" y="1430" type="curve" smooth="yes"/>
      <point x="472" y="1430"/>
      <point x="226" y="1204"/>
      <point x="226" y="932" type="curve" smooth="yes"/>
      <point x="226" y="710"/>
      <point x="412" y="546"/>
      <point x="670" y="546" type="curve" smooth="yes"/>
      <point x="842" y="546"/>
      <point x="992" y="630"/>
      <point x="1086" y="758" type="curve"/>
      <point x="994" y="404"/>
      <point x="672" y="154"/>
      <point x="208" y="96" type="curve"/>
    </contour>
    <contour>
      <point x="702" y="648" type="curve" smooth="yes"/>
      <point x="500" y="648"/>
      <point x="354" y="782"/>
      <point x="354" y="956" type="curve" smooth="yes"/>
      <point x="354" y="1154"/>
      <point x="526" y="1316"/>
      <point x="748" y="1316" type="curve" smooth="yes"/>
      <point x="964" y="1316"/>
      <point x="1102" y="1190"/>
      <point x="1102" y="1018" type="curve" smooth="yes"/>
      <point x="1102" y="806"/>
      <point x="918" y="648"/>
    </contour>
  </outline>
</glyph>
<glyph name="semicolon" format="2">
  <advance width="624"/>
  <unicode hex="003B"/>
  <outline>
    <contour>
      <point x="388" y="792" type="curve" smooth="yes"/>
      <point x="454" y="792"/>
      <point x="512" y="838"/>
      <point x="512" y="904" type="curve" smooth="yes"/>
      <point x="512" y="960"/>
      <point x="472" y="1000"/>
      <point x="414" y="1000" type="curve" smooth="yes"/>
      <point x="348" y="1000"/>
      <point x="290" y="952"/>
      <point x="290" y="884" type="curve" smooth="yes"/>
      <point x="290" y="830"/>
      <point x="330" y="792"/>
    </contour>
    <contour>
      <point x="54" y="-246" type="line"/>
      <point x="228" y="-158"/>
      <point x="330" y="-50"/>
      <point x="330" y="70" type="curve" smooth="yes"/>
      <point x="330" y="134"/>
      <point x="292" y="178"/>
      <point x="228" y="178" type="curve" smooth="yes"/>
      <point x="166" y="178"/>
      <point x="114" y="128"/>
      <point x="114" y="62" type="curve" smooth="yes"/>
      <point x="114" y="10"/>
      <point x="152" y="-26"/>
      <point x="210" y="-24" type="curve"/>
      <point x="194" y="-78"/>
      <point x="96" y="-138"/>
      <point x="8" y="-180" type="curve"/>
    </contour>
  </outline>
</glyph>
<glyph name="less" format="2">
  <advance width="1298"/>
  <unicode hex="003C"/>
  <outline>
    <contour>
      <point x="1048" y="248" type="line"/>
      <point x="1092" y="348" type="line"/>
      <point x="374" y="658" type="line"/>
      <point x="1244" y="978" type="line"/>
      <point x="1206" y="1082" type="line"/>
      <point x="230" y="710" type="line"/>
      <point x="212" y="618" type="line"/>
    </contour>
  </outline>
</glyph>
<glyph name="greater" format="2">
  <advance width="1298"/>
  <unicode hex="003E"/>
  <guideline x="99" y="489" angle="67.7944"/>
  <guideline x="152" y="515" angle="66.1706"/>
  <guideline x="75" y="151" angle="110.9415"/>
  <outline>
    <contour>
      <point x="171" y="248" type="line"/>
      <point x="1147" y="620" type="line"/>
      <point x="1165" y="712" type="line"/>
      <point x="329" y="1082" type="line"/>
      <point x="285" y="982" type="line"/>
      <point x="1003" y="672" type="line"/>
      <point x="133" y="352" type="line"/>
    </contour>
  </outline>
</glyph>
<glyph name="at" format="2">
  <advance width="1739"/>
  <unicode hex="0040"/>
  <guideline x="547" y="429" angle="87.0391"/>
  <outline>
    <contour>
      <point x="880" y="-234" type="curve" smooth="yes"/>
      <point x="1090" y="-234"/>
      <point x="1310" y="-172"/>
      <point x="1430" y="-78" type="curve"/>
      <point x="1390" y="2" type="line"/>
      <point x="1288" y="-86"/>
      <point x="1084" y="-148"/>
      <point x="896" y="-148" type="curve" smooth="yes"/>
      <point x="494" y="-148"/>
      <point x="224" y="110"/>
      <point x="224" y="490" type="curve" smooth="yes"/>
      <point x="224" y="868"/>
      <point x="518" y="1156"/>
      <point x="904" y="1156" type="curve" smooth="yes"/>
      <point x="1278" y="1156"/>
      <point x="1538" y="916"/>
      <point x="1538" y="572" type="curve" smooth="yes"/>
      <point x="1538" y="360"/>
      <point x="1432" y="214"/>
      <point x="1304" y="214" type="curve" smooth="yes"/>
      <point x="1194" y="214"/>
      <point x="1166" y="266"/>
      <point x="1172" y="394" type="curve" smooth="yes"/>
      <point x="1196" y="864" type="line"/>
      <point x="1096" y="864" type="line"/>
      <point x="1092" y="772" type="line"/>
      <point x="1030" y="850"/>
      <point x="948" y="890"/>
      <point x="850" y="890" type="curve" smooth="yes"/>
      <point x="656" y="890"/>
      <point x="498" y="710"/>
      <point x="498" y="488" type="curve" smooth="yes"/>
      <point x="498" y="286"/>
      <point x="630" y="132"/>
      <point x="804" y="132" type="curve" smooth="yes"/>
      <point x="928" y="132"/>
      <point x="1034" y="188"/>
      <point x="1088" y="284" type="curve"/>
      <point x="1102" y="190"/>
      <point x="1170" y="132"/>
      <point x="1290" y="132" type="curve" smooth="yes"/>
      <point x="1478" y="132"/>
      <point x="1632" y="318"/>
      <point x="1632" y="574" type="curve" smooth="yes"/>
      <point x="1632" y="968"/>
      <point x="1332" y="1242"/>
      <point x="904" y="1242" type="curve" smooth="yes"/>
      <point x="460" y="1242"/>
      <point x="130" y="918"/>
      <point x="130" y="484" type="curve" smooth="yes"/>
      <point x="130" y="54"/>
      <point x="432" y="-234"/>
    </contour>
    <contour>
      <point x="824" y="228" type="curve" smooth="yes"/>
      <point x="680" y="228"/>
      <point x="602" y="318"/>
      <point x="602" y="484" type="curve" smooth="yes"/>
      <point x="602" y="678"/>
      <point x="698" y="794"/>
      <point x="858" y="794" type="curve" smooth="yes"/>
      <point x="1000" y="794"/>
      <point x="1078" y="704"/>
      <point x="1078" y="542" type="curve" smooth="yes"/>
      <point x="1078" y="344"/>
      <point x="984" y="228"/>
    </contour>
  </outline>
</glyph>
<glyph name="C" format="2">
  <advance width="1383"/>
  <unicode hex="0043"/>
  <guideline x="615" y="101" angle="78.0016"/>
  <guideline x="673" y="586" angle="78.0016"/>
  <anchor x="713" y="0" name="bottom"/>
  <anchor x="939" y="1400" name="top"/>
  <outline>
    <contour>
      <point x="801" y="-30" type="curve" smooth="yes"/>
      <point x="943" y="-30"/>
      <point x="1073" y="0"/>
      <point x="1195" y="70" type="curve"/>
      <point x="1225" y="202" type="line"/>
      <point x="1107" y="122"/>
      <point x="979" y="82"/>
      <point x="829" y="82" type="curve" smooth="yes"/>
      <point x="487" y="82"/>
      <point x="277" y="272"/>
      <point x="277" y="594" type="curve" smooth="yes"/>
      <point x="277" y="998"/>
      <point x="535" y="1320"/>
      <point x="931" y="1320" type="curve" smooth="yes"/>
      <point x="1107" y="1320"/>
      <point x="1249" y="1270"/>
      <point x="1341" y="1172" type="curve"/>
      <point x="1369" y="1296" type="line"/>
      <point x="1269" y="1382"/>
      <point x="1123" y="1430"/>
      <point x="939" y="1430" type="curve" smooth="yes"/>
      <point x="493" y="1430"/>
      <point x="153" y="1040"/>
      <point x="153" y="578" type="curve" smooth="yes"/>
      <point x="153" y="212"/>
      <point x="399" y="-30"/>
    </contour>
  </outline>
</glyph>
<glyph name="D" format="2">
  <advance width="1409"/>
  <unicode hex="0044"/>
  <anchor x="492" y="742" name="bar"/>
  <anchor x="872" y="1400" name="top"/>
  <outline>
    <contour>
      <point x="100" y="0" type="line"/>
      <point x="520" y="0" type="line" smooth="yes"/>
      <point x="1010" y="0"/>
      <point x="1342" y="314"/>
      <point x="1342" y="794" type="curve" smooth="yes"/>
      <point x="1342" y="1188"/>
      <point x="1042" y="1400"/>
      <point x="640" y="1400" type="curve" smooth="yes"/>
      <point x="396" y="1400" type="line"/>
    </contour>
    <contour>
      <point x="238" y="108" type="line"/>
      <point x="490" y="1292" type="line"/>
      <point x="658" y="1292" type="line" smooth="yes"/>
      <point x="1008" y="1292"/>
      <point x="1222" y="1086"/>
      <point x="1222" y="778" type="curve" smooth="yes"/>
      <point x="1222" y="402"/>
      <point x="950" y="108"/>
      <point x="558" y="108" type="curve" smooth="yes"/>
    </contour>
  </outline>
</glyph>
<glyph name="G" format="2">
  <advance width="1519"/>
  <unicode hex="0047"/>
  <guideline x="682" y="595" angle="77.8319"/>
  <anchor x="803" y="0" name="bottom"/>
  <anchor x="967" y="1400" name="top"/>
  <outline>
    <contour>
      <point x="853" y="-30" type="curve" smooth="yes"/>
      <point x="963" y="-30"/>
      <point x="1131" y="-4"/>
      <point x="1235" y="46" type="curve"/>
      <point x="1373" y="686" type="line"/>
      <point x="925" y="686" type="line"/>
      <point x="877" y="578" type="line"/>
      <point x="1237" y="578" type="line"/>
      <point x="1141" y="114" type="line"/>
      <point x="1081" y="94"/>
      <point x="993" y="78"/>
      <point x="891" y="78" type="curve" smooth="yes"/>
      <point x="511" y="78"/>
      <point x="277" y="280"/>
      <point x="277" y="608" type="curve" smooth="yes"/>
      <point x="277" y="1004"/>
      <point x="547" y="1318"/>
      <point x="955" y="1318" type="curve" smooth="yes"/>
      <point x="1109" y="1318"/>
      <point x="1267" y="1274"/>
      <point x="1385" y="1190" type="curve"/>
      <point x="1410" y="1305" type="line"/>
      <point x="1302" y="1387"/>
      <point x="1146" y="1430"/>
      <point x="983" y="1430" type="curve" smooth="yes"/>
      <point x="511" y="1430"/>
      <point x="157" y="1072"/>
      <point x="157" y="604" type="curve" smooth="yes"/>
      <point x="157" y="218"/>
      <point x="455" y="-30"/>
    </contour>
  </outline>
</glyph>
<glyph name="H" format="2">
  <advance width="1438"/>
  <unicode hex="0048"/>
  <anchor x="914" y="1400" name="top"/>
  <anchor x="316" y="1400" name="topleft"/>
  <outline>
    <contour>
      <point x="100" y="0" type="line"/>
      <point x="216" y="0" type="line"/>
      <point x="364" y="698" type="line"/>
      <point x="1168" y="698" type="line"/>
      <point x="1020" y="0" type="line"/>
      <point x="1136" y="0" type="line"/>
      <point x="1432" y="1400" type="line"/>
      <point x="1316" y="1400" type="line"/>
      <point x="1190" y="806" type="line"/>
      <point x="386" y="806" type="line"/>
      <point x="512" y="1400" type="line"/>
      <point x="396" y="1400" type="line"/>
    </contour>
  </outline>
</glyph>
<glyph name="P" format="2">
  <advance width="1250"/>
  <unicode hex="0050"/>
  <outline>
    <contour>
      <point x="100" y="0" type="line"/>
      <point x="216" y="0" type="line"/>
      <point x="344" y="604" type="line"/>
      <point x="740" y="604" type="line" smooth="yes"/>
      <point x="1038" y="604"/>
      <point x="1248" y="766"/>
      <point x="1248" y="1044" type="curve" smooth="yes"/>
      <point x="1248" y="1264"/>
      <point x="1074" y="1400"/>
      <point x="788" y="1400" type="curve" smooth="yes"/>
      <point x="396" y="1400" type="line"/>
    </contour>
    <contour>
      <point x="366" y="712" type="line"/>
      <point x="490" y="1292" type="line"/>
      <point x="790" y="1292" type="line" smooth="yes"/>
      <point x="1012" y="1292"/>
      <point x="1130" y="1190"/>
      <point x="1130" y="1030" type="curve" smooth="yes"/>
      <point x="1130" y="836"/>
      <point x="984" y="712"/>
      <point x="764" y="712" type="curve" smooth="yes"/>
    </contour>
  </outline>
</glyph>
<glyph name="U" format="2">
  <advance width="1444"/>
  <unicode hex="0055"/>
  <anchor x="656" y="0" name="bottom"/>
  <anchor x="1450" y="1400" name="horn"/>
  <anchor x="937" y="0" name="ogonek"/>
  <anchor x="918" y="1400" name="top"/>
  <outline>
    <contour>
      <point x="658" y="-30" type="curve" smooth="yes"/>
      <point x="990" y="-30"/>
      <point x="1196" y="202"/>
      <point x="1262" y="516" type="curve" smooth="yes"/>
      <point x="1450" y="1400" type="line"/>
      <point x="1334" y="1400" type="line"/>
      <point x="1150" y="532" type="line" smooth="yes"/>
      <point x="1084" y="220"/>
      <point x="904" y="82"/>
      <point x="668" y="82" type="curve" smooth="yes"/>
      <point x="382" y="82"/>
      <point x="258" y="250"/>
      <point x="318" y="532" type="curve" smooth="yes"/>
      <point x="502" y="1400" type="line"/>
      <point x="386" y="1400" type="line"/>
      <point x="198" y="516" type="line" smooth="yes"/>
      <point x="130" y="198"/>
      <point x="310" y="-30"/>
    </contour>
  </outline>
</glyph>
<glyph name="backslash" format="2">
  <advance width="906"/>
  <unicode hex="005C"/>
  <guideline x="293" y="-215" angle="11.5546"/>
  <guideline x="163" y="705" angle="11.5546"/>
  <outline>
    <contour>
      <point x="590" y="-430" type="line"/>
      <point x="698" y="-408" type="line"/>
      <point x="322" y="1410" type="line"/>
      <point x="214" y="1388" type="line"/>
    </contour>
  </outline>
</glyph>
<glyph name="a" format="2">
  <advance width="1058"/>
  <unicode hex="0061"/>
  <guideline x="114" y="396" angle="77.7117"/>
  <anchor x="399" y="0" name="bottom"/>
  <anchor x="795" y="0" name="ogonek"/>
  <anchor x="601" y="960" name="top"/>
  <outline>
    <contour>
      <point x="357" y="-30" type="curve" smooth="yes"/>
      <point x="487" y="-30"/>
      <point x="627" y="14"/>
      <point x="709" y="126" type="curve"/>
      <point x="683" y="0" type="line"/>
      <point x="795" y="0" type="line"/>
      <point x="925" y="597" type="line" smooth="yes"/>
      <point x="983" y="866"/>
      <point x="833" y="1000"/>
      <point x="585" y="1000" type="curve" smooth="yes"/>
      <point x="473" y="1000"/>
      <point x="369" y="973"/>
      <point x="269" y="909" type="curve"/>
      <point x="245" y="792" type="line"/>
      <point x="343" y="856"/>
      <point x="467" y="892"/>
      <point x="572" y="892" type="curve" smooth="yes"/>
      <point x="731" y="892"/>
      <point x="855" y="810"/>
      <point x="811" y="604" type="curve" smooth="yes"/>
      <point x="757" y="350" type="line" smooth="yes"/>
      <point x="727" y="206"/>
      <point x="573" y="78"/>
      <point x="381" y="78" type="curve" smooth="yes"/>
      <point x="255" y="78"/>
      <point x="167" y="142"/>
      <point x="167" y="253" type="curve" smooth="yes"/>
      <point x="167" y="484"/>
      <point x="517" y="498"/>
      <point x="831" y="458" type="curve"/>
      <point x="847" y="552" type="line"/>
      <point x="435" y="612"/>
      <point x="53" y="544"/>
      <point x="53" y="240" type="curve" smooth="yes"/>
      <point x="53" y="72"/>
      <point x="173" y="-30"/>
    </contour>
  </outline>
</glyph>
<glyph name="l" format="2">
  <advance width="453"/>
  <unicode hex="006C"/>
  <anchor x="124" y="0" name="bottom"/>
  <anchor x="488" y="1440" name="caron"/>
  <anchor x="432" y="1440" name="top"/>
  <outline>
    <contour>
      <point x="68" y="0" type="line"/>
      <point x="180" y="0" type="line"/>
      <point x="496" y="1480" type="line"/>
      <point x="354" y="1338" type="line"/>
    </contour>
  </outline>
</glyph>
<glyph name="s" format="2">
  <advance width="934"/>
  <unicode hex="0073"/>
  <guideline x="401" y="383" angle="78.0016"/>
  <guideline x="41" y="103" angle="78.0016"/>
  <anchor x="364" y="0" name="bottom"/>
  <anchor x="534" y="960" name="top"/>
  <outline>
    <contour>
      <point x="376" y="-30" type="curve" smooth="yes"/>
      <point x="598" y="-30"/>
      <point x="752" y="96"/>
      <point x="752" y="290" type="curve" smooth="yes"/>
      <point x="752" y="410"/>
      <point x="666" y="480"/>
      <point x="498" y="536" type="curve" smooth="yes"/>
      <point x="360" y="584"/>
      <point x="284" y="624"/>
      <point x="284" y="710" type="curve" smooth="yes"/>
      <point x="284" y="828"/>
      <point x="382" y="896"/>
      <point x="516" y="896" type="curve" smooth="yes"/>
      <point x="644" y="896"/>
      <point x="760" y="846"/>
      <point x="822" y="766" type="curve"/>
      <point x="848" y="890" type="line"/>
      <point x="769" y="961"/>
      <point x="662" y="1000"/>
      <point x="534" y="1000" type="curve" smooth="yes"/>
      <point x="326" y="1000"/>
      <point x="170" y="866"/>
      <point x="170" y="692" type="curve" smooth="yes"/>
      <point x="170" y="572"/>
      <point x="254" y="504"/>
      <point x="426" y="442" type="curve" smooth="yes"/>
      <point x="574" y="386"/>
      <point x="638" y="348"/>
      <point x="638" y="266" type="curve" smooth="yes"/>
      <point x="638" y="144"/>
      <point x="538" y="74"/>
      <point x="384" y="74" type="curve" smooth="yes"/>
      <point x="254" y="74"/>
      <point x="134" y="122"/>
      <point x="62" y="206" type="curve"/>
      <point x="36" y="84" type="line"/>
      <point x="115" y="15"/>
      <point x="243" y="-30"/>
    </contour>
  </outline>
</glyph>
<glyph name="t" format="2">
  <advance width="818"/>
  <unicode hex="0074"/>
  <guideline x="305" y="52" angle="257.9387"/>
  <anchor x="400" y="520" name="bar"/>
  <anchor x="410" y="0" name="bottom"/>
  <anchor x="594" y="1440" name="caron"/>
  <outline>
    <contour>
      <point x="468" y="-30" type="curve" smooth="yes"/>
      <point x="506" y="-30"/>
      <point x="548" y="-24"/>
      <point x="586" y="-14" type="curve"/>
      <point x="610" y="104" type="line"/>
      <point x="578" y="90"/>
      <point x="540" y="80"/>
      <point x="491" y="80" type="curve" smooth="yes"/>
      <point x="354" y="80"/>
      <point x="322" y="158"/>
      <point x="354" y="310" type="curve" smooth="yes"/>
      <point x="470" y="856" type="line"/>
      <point x="780" y="856" type="line"/>
      <point x="804" y="960" type="line"/>
      <point x="492" y="960" type="line"/>
      <point x="554" y="1246" type="line"/>
      <point x="442" y="1246" type="line"/>
      <point x="234" y="270" type="line" smooth="yes"/>
      <point x="194" y="76"/>
      <point x="282" y="-30"/>
    </contour>
    <contour>
      <point x="140" y="856" type="line"/>
      <point x="392" y="856" type="line"/>
      <point x="420" y="980" type="line"/>
      <point x="150" y="896" type="line"/>
    </contour>
  </outline>
</glyph>
<glyph name="w" format="2">
  <advance width="1500"/>
  <unicode hex="0077"/>
  <anchor x="850" y="960" name="top"/>
  <outline>
    <contour>
      <point x="254" y="0" type="line"/>
      <point x="384" y="0" type="line"/>
      <point x="822" y="802" type="line"/>
      <point x="908" y="0" type="line"/>
      <point x="1036" y="0" type="line"/>
      <point x="1560" y="960" type="line"/>
      <point x="1442" y="960" type="line"/>
      <point x="998" y="138" type="line"/>
      <point x="924" y="960" type="line"/>
      <point x="796" y="960" type="line"/>
      <point x="344" y="134" type="line"/>
      <point x="264" y="960" type="line"/>
      <point x="144" y="960" type="line"/>
    </contour>
  </outline>
</glyph>
<glyph name="x" format="2">
  <advance width="900"/>
  <unicode hex="0078"/>
  <outline>
    <contour>
      <point x="-74" y="0" type="line"/>
      <point x="68" y="0" type="line"/>
      <point x="436" y="408" type="line"/>
      <point x="632" y="0" type="line"/>
      <point x="770" y="0" type="line"/>
      <point x="524" y="494" type="line"/>
      <point x="940" y="960" type="line"/>
      <point x="800" y="960" type="line"/>
      <point x="470" y="582" type="line"/>
      <point x="286" y="960" type="line"/>
      <point x="150" y="960" type="line"/>
      <point x="384" y="496" type="line"/>
    </contour>
  </outline>
</glyph>
<glyph name="y" format="2">
  <advance width="946"/>
  <unicode hex="0079"/>
  <guideline x="-65" y="-138" angle="77.9504"/>
  <anchor x="602" y="0" name="bottom"/>
  <anchor x="556" y="960" name="top"/>
  <outline>
    <contour>
      <point x="30" y="-450" type="curve" smooth="yes"/>
      <point x="152" y="-450"/>
      <point x="244" y="-394"/>
      <point x="352" y="-204" type="curve" smooth="yes"/>
      <point x="1006" y="960" type="line"/>
      <point x="884" y="960" type="line"/>
      <point x="398" y="94" type="line"/>
      <point x="248" y="960" type="line"/>
      <point x="124" y="960" type="line"/>
      <point x="306" y="-58" type="line"/>
      <point x="240" y="-186" type="line" smooth="yes"/>
      <point x="186" y="-288"/>
      <point x="132" y="-342"/>
      <point x="30" y="-342" type="curve" smooth="yes"/>
      <point x="-20" y="-342"/>
      <point x="-80" y="-322"/>
      <point x="-120" y="-276" type="curve"/>
      <point x="-146" y="-396" type="line"/>
      <point x="-84" y="-444"/>
      <point x="-29" y="-450"/>
    </contour>
  </outline>
</glyph>
<glyph name="braceright" format="2">
  <advance width="668"/>
  <unicode hex="007D"/>
  <outline>
    <contour>
      <point x="-58" y="-424" type="line"/>
      <point x="142" y="-456"/>
      <point x="264" y="-366"/>
      <point x="280" y="-204" type="curve" smooth="yes"/>
      <point x="320" y="278" type="line" smooth="yes"/>
      <point x="330" y="416"/>
      <point x="360" y="444"/>
      <point x="524" y="444" type="curve"/>
      <point x="546" y="540" type="line"/>
      <point x="382" y="540"/>
      <point x="364" y="568"/>
      <point x="410" y="704" type="curve" smooth="yes"/>
      <point x="572" y="1180" type="line" smooth="yes"/>
      <point x="626" y="1344"/>
      <point x="538" y="1436"/>
      <point x="330" y="1404" type="curve"/>
      <point x="310" y="1308" type="line"/>
      <point x="458" y="1322"/>
      <point x="492" y="1280"/>
      <point x="458" y="1174" type="curve" smooth="yes"/>
      <point x="308" y="720" type="line" smooth="yes"/>
      <point x="258" y="576"/>
      <point x="280" y="512"/>
      <point x="384" y="492" type="curve"/>
      <point x="382" y="490" type="line"/>
      <point x="266" y="468"/>
      <point x="222" y="406"/>
      <point x="210" y="262" type="curve" smooth="yes"/>
      <point x="168" y="-194" type="line" smooth="yes"/>
      <point x="156" y="-302"/>
      <point x="104" y="-342"/>
      <point x="-38" y="-328" type="curve"/>
    </contour>
  </outline>
</glyph>
<glyph name="ordfeminine" format="2">
  <advance width="776"/>
  <unicode hex="00AA"/>
  <guideline x="211" y="450" angle="0"/>
  <anchor x="426" y="722" name="bottom"/>
  <anchor x="702" y="722" name="ogonek"/>
  <anchor x="558" y="1354" name="top"/>
  <outline>
    <contour>
      <point x="382" y="702" type="curve" smooth="yes"/>
      <point x="476" y="702"/>
      <point x="570" y="732"/>
      <point x="622" y="802" type="curve"/>
      <point x="606" y="722" type="line"/>
      <point x="702" y="722" type="line"/>
      <point x="786" y="1112" type="line" smooth="yes"/>
      <point x="824" y="1286"/>
      <point x="726" y="1380"/>
      <point x="540" y="1380" type="curve" smooth="yes"/>
      <point x="454" y="1380"/>
      <point x="360" y="1354"/>
      <point x="282" y="1290" type="curve"/>
      <point x="338" y="1380" type="line"/>
      <point x="308" y="1228" type="line"/>
      <point x="372" y="1268"/>
      <point x="460" y="1290"/>
      <point x="524" y="1290" type="curve" smooth="yes"/>
      <point x="636" y="1290"/>
      <point x="712" y="1238"/>
      <point x="686" y="1116" type="curve" smooth="yes"/>
      <point x="652" y="954" type="line" smooth="yes"/>
      <point x="634" y="866"/>
      <point x="536" y="790"/>
      <point x="416" y="790" type="curve" smooth="yes"/>
      <point x="338" y="790"/>
      <point x="282" y="828"/>
      <point x="282" y="890" type="curve" smooth="yes"/>
      <point x="282" y="1026"/>
      <point x="492" y="1042"/>
      <point x="698" y="1016" type="curve"/>
      <point x="712" y="1090" type="line"/>
      <point x="428" y="1128"/>
      <point x="182" y="1076"/>
      <point x="182" y="878" type="curve" smooth="yes"/>
      <point x="182" y="772"/>
      <point x="264" y="702"/>
    </contour>
  </outline>
</glyph>
<glyph name="twosuperior" format="2">
  <advance width="828"/>
  <unicode hex="00B2"/>
  <guideline x="211" y="450" angle="0"/>
  <outline>
    <contour>
      <point x="162" y="722" type="line"/>
      <point x="766" y="722" type="line"/>
      <point x="806" y="814" type="line"/>
      <point x="322" y="814" type="line"/>
      <point x="540" y="972" type="line" smooth="yes"/>
      <point x="742" y="1118"/>
      <point x="888" y="1246"/>
      <point x="888" y="1414" type="curve" smooth="yes"/>
      <point x="888" y="1560"/>
      <point x="770" y="1652"/>
      <point x="600" y="1652" type="curve" smooth="yes"/>
      <point x="519" y="1652"/>
      <point x="437" y="1632"/>
      <point x="371" y="1594" type="curve"/>
      <point x="350" y="1488" type="line"/>
      <point x="418" y="1534"/>
      <point x="500" y="1558"/>
      <point x="576" y="1558" type="curve" smooth="yes"/>
      <point x="704" y="1558"/>
      <point x="784" y="1498"/>
      <point x="784" y="1402" type="curve" smooth="yes"/>
      <point x="784" y="1258"/>
      <point x="622" y="1132"/>
      <point x="436" y="994" type="curve" smooth="yes"/>
      <point x="180" y="804" type="line"/>
    </contour>
  </outline>
</glyph>
<glyph name="paragraph" format="2">
  <advance width="1224"/>
  <unicode hex="00B6"/>
  <outline>
    <contour>
      <point x="325" y="-420" type="line"/>
      <point x="429" y="-420" type="line"/>
      <point x="795" y="1300" type="line"/>
      <point x="1001" y="1300" type="line"/>
      <point x="635" y="-420" type="line"/>
      <point x="739" y="-420" type="line"/>
      <point x="1105" y="1300" type="line"/>
      <point x="1327" y="1300" type="line"/>
      <point x="1349" y="1400" type="line"/>
      <point x="715" y="1400" type="line" smooth="yes"/>
      <point x="449" y="1400"/>
      <point x="231" y="1246"/>
      <point x="231" y="1008" type="curve" smooth="yes"/>
      <point x="231" y="824"/>
      <point x="371" y="688"/>
      <point x="603" y="692" type="curve"/>
      <point x="571" y="730" type="line"/>
    </contour>
  </outline>
</glyph>
<glyph name="idotless" format="2">
  <advance width="452"/>
  <unicode hex="0131"/>
  <anchor x="124" y="0" name="bottom"/>
  <anchor x="180" y="0" name="ogonek"/>
  <anchor x="328" y="960" name="top"/>
  <outline>
    <contour>
      <point x="68" y="0" type="line"/>
      <point x="180" y="0" type="line"/>
      <point x="392" y="1000" type="line"/>
      <point x="250" y="858" type="line"/>
    </contour>
  </outline>
</glyph>
<glyph name="lslash" format="2">
  <advance width="534"/>
  <unicode hex="0142"/>
  <anchor x="162.0" y="0" name="bottom"/>
  <anchor x="529.384" y="1440" name="caron"/>
  <anchor x="473.384" y="1440" name="top"/>
  <outline>
    <contour>
      <point x="40" y="494" type="line"/>
      <point x="296" y="602" type="line"/>
      <point x="294" y="592" type="line"/>
      <point x="544" y="698" type="line"/>
      <point x="564" y="798" type="line"/>
      <point x="308" y="690" type="line"/>
      <point x="310" y="700" type="line"/>
      <point x="60" y="594" type="line"/>
    </contour>
    <component base="l" yxScale="0.00235" xOffset="38"/>
  </outline>
</glyph>
<glyph name="OE" format="2">
  <advance width="2433"/>
  <unicode hex="0152"/>
  <outline>
    <contour>
      <point x="809" y="-30" type="curve" smooth="yes"/>
      <point x="1055" y="-30"/>
      <point x="1277" y="74"/>
      <point x="1423" y="260" type="curve"/>
      <point x="1411" y="284" type="line"/>
      <point x="1351" y="0" type="line"/>
      <point x="2169" y="0" type="line"/>
      <point x="2215" y="108" type="line"/>
      <point x="1489" y="108" type="line"/>
      <point x="1613" y="688" type="line"/>
      <point x="2241" y="688" type="line"/>
      <point x="2263" y="796" type="line"/>
      <point x="1635" y="796" type="line"/>
      <point x="1741" y="1292" type="line"/>
      <point x="2449" y="1292" type="line"/>
      <point x="2471" y="1400" type="line"/>
      <point x="1647" y="1400" type="line"/>
      <point x="1561" y="990" type="line"/>
      <point x="1583" y="1006" type="line"/>
      <point x="1491" y="1284"/>
      <point x="1235" y="1430"/>
      <point x="959" y="1430" type="curve" smooth="yes"/>
      <point x="519" y="1430"/>
      <point x="157" y="1054"/>
      <point x="157" y="610" type="curve" smooth="yes"/>
      <point x="157" y="246"/>
      <point x="423" y="-30"/>
    </contour>
    <contour>
      <point x="829" y="82" type="curve" smooth="yes"/>
      <point x="511" y="82"/>
      <point x="277" y="294"/>
      <point x="277" y="618" type="curve" smooth="yes"/>
      <point x="277" y="996"/>
      <point x="567" y="1318"/>
      <point x="957" y="1318" type="curve" smooth="yes"/>
      <point x="1283" y="1318"/>
      <point x="1507" y="1100"/>
      <point x="1507" y="780" type="curve" smooth="yes"/>
      <point x="1507" y="390"/>
      <point x="1211" y="82"/>
    </contour>
  </outline>
</glyph>
<glyph name="Uogonek" format="2">
  <advance width="1444"/>
  <unicode hex="0172"/>
  <anchor x="918" y="1400" name="top"/>
  <outline>
    <contour>
      <point x="698" y="-450" type="curve" smooth="yes"/>
      <point x="753" y="-450"/>
      <point x="805" y="-437"/>
      <point x="850" y="-411" type="curve"/>
      <point x="874" y="-298" type="line"/>
      <point x="833" y="-328"/>
      <point x="786" y="-343"/>
      <point x="735" y="-343" type="curve" smooth="yes"/>
      <point x="673" y="-343"/>
      <point x="644" y="-318"/>
      <point x="644" y="-253" type="curve" smooth="yes"/>
      <point x="644" y="-145"/>
      <point x="733" y="-51"/>
      <point x="876" y="9" type="curve" smooth="yes"/>
      <point x="1081" y="87"/>
      <point x="1212" y="278"/>
      <point x="1262" y="516" type="curve" smooth="yes"/>
      <point x="1450" y="1400" type="line"/>
      <point x="1334" y="1400" type="line"/>
      <point x="1150" y="532" type="line" smooth="yes"/>
      <point x="1084" y="220"/>
      <point x="904" y="82"/>
      <point x="668" y="82" type="curve" smooth="yes"/>
      <point x="382" y="82"/>
      <point x="258" y="250"/>
      <point x="318" y="532" type="curve" smooth="yes"/>
      <point x="502" y="1400" type="line"/>
      <point x="386" y="1400" type="line"/>
      <point x="198" y="516" type="line" smooth="yes"/>
      <point x="130" y="200"/>
      <point x="308" y="-28"/>
      <point x="652" y="-30" type="curve"/>
      <point x="570" y="-100"/>
      <point x="518" y="-188"/>
      <point x="518" y="-276" type="curve" smooth="yes"/>
      <point x="518" y="-388"/>
      <point x="589" y="-450"/>
    </contour>
  </outline>
</glyph>
<glyph name="Schwa" format="2">
  <advance width="1612"/>
  <unicode hex="018F"/>
  <guideline x="210" y="589" angle="78.0239"/>
  <outline>
    <contour>
      <point x="754" y="-30" type="curve" smooth="yes"/>
      <point x="1208" y="-30"/>
      <point x="1550" y="356"/>
      <point x="1550" y="816" type="curve" smooth="yes"/>
      <point x="1550" y="1180"/>
      <point x="1300" y="1430"/>
      <point x="896" y="1430" type="curve" smooth="yes"/>
      <point x="725" y="1430"/>
      <point x="562" y="1382"/>
      <point x="428" y="1308" type="curve"/>
      <point x="400" y="1178" type="line"/>
      <point x="526" y="1268"/>
      <point x="696" y="1318"/>
      <point x="874" y="1318" type="curve" smooth="yes"/>
      <point x="1224" y="1318"/>
      <point x="1430" y="1122"/>
      <point x="1430" y="812" type="curve" smooth="yes"/>
      <point x="1430" y="420"/>
      <point x="1166" y="82"/>
      <point x="770" y="82" type="curve" smooth="yes"/>
      <point x="454" y="82"/>
      <point x="214" y="338"/>
      <point x="284" y="638" type="curve"/>
      <point x="228" y="602" type="line"/>
      <point x="1438" y="602" type="line"/>
      <point x="1460" y="710" type="line"/>
      <point x="160" y="710" type="line"/>
      <point x="92" y="286"/>
      <point x="334" y="-30"/>
    </contour>
  </outline>
</glyph>
<glyph name="florin" format="2">
  <advance width="1298"/>
  <unicode hex="0192"/>
  <guideline x="-69" y="-138" angle="78.0239"/>
  <guideline x="511" y="627" angle="78.0239"/>
  <outline>
    <contour>
      <point x="192" y="-452" type="curve" smooth="yes"/>
      <point x="366" y="-452"/>
      <point x="470" y="-348"/>
      <point x="518" y="-134" type="curve" smooth="yes"/>
      <point x="800" y="1112" type="line" smooth="yes"/>
      <point x="836" y="1270"/>
      <point x="890" y="1326"/>
      <point x="1012" y="1326" type="curve" smooth="yes"/>
      <point x="1088" y="1326"/>
      <point x="1172" y="1290"/>
      <point x="1202" y="1254" type="curve"/>
      <point x="1222" y="1354" type="line"/>
      <point x="1176" y="1398"/>
      <point x="1106" y="1430"/>
      <point x="1012" y="1430" type="curve" smooth="yes"/>
      <point x="838" y="1430"/>
      <point x="734" y="1326"/>
      <point x="686" y="1112" type="curve" smooth="yes"/>
      <point x="404" y="-134" type="line" smooth="yes"/>
      <point x="368" y="-292"/>
      <point x="314" y="-348"/>
      <point x="192" y="-348" type="curve" smooth="yes"/>
      <point x="116" y="-348"/>
      <point x="32" y="-312"/>
      <point x="2" y="-276" type="curve"/>
      <point x="-20" y="-376" type="line"/>
      <point x="28" y="-420"/>
      <point x="96" y="-452"/>
    </contour>
    <contour>
      <point x="176" y="638" type="line"/>
      <point x="1112" y="638" type="line"/>
      <point x="1134" y="738" type="line"/>
      <point x="198" y="738" type="line"/>
    </contour>
  </outline>
</glyph>
<glyph name="Oogonek" format="2">
  <advance width="1696"/>
  <unicode hex="01EA"/>
  <anchor x="1006" y="1400" name="top"/>
  <outline>
    <contour>
      <point x="701" y="-253" type="curve" smooth="yes"/>
      <point x="701" y="-156"/>
      <point x="796" y="-71"/>
      <point x="994" y="-10" type="curve"/>
      <point x="968" y="58" type="line"/>
      <point x="727" y="-2"/>
      <point x="575" y="-140"/>
      <point x="575" y="-276" type="curve" smooth="yes"/>
      <point x="575" y="-388"/>
      <point x="646" y="-450"/>
      <point x="755" y="-450" type="curve" smooth="yes"/>
      <point x="810" y="-450"/>
      <point x="862" y="-437"/>
      <point x="907" y="-411" type="curve"/>
      <point x="931" y="-298" type="line"/>
      <point x="890" y="-328"/>
      <point x="843" y="-343"/>
      <point x="792" y="-343" type="curve" smooth="yes"/>
      <point x="730" y="-343"/>
      <point x="701" y="-318"/>
    </contour>
    <contour>
      <point x="820" y="-30" type="curve" smooth="yes"/>
      <point x="1260" y="-30"/>
      <point x="1630" y="342"/>
      <point x="1630" y="782" type="curve" smooth="yes"/>
      <point x="1630" y="1148"/>
      <point x="1358" y="1430"/>
      <point x="966" y="1430" type="curve" smooth="yes"/>
      <point x="524" y="1430"/>
      <point x="158" y="1060"/>
      <point x="158" y="614" type="curve" smooth="yes"/>
      <point x="158" y="246"/>
      <point x="428" y="-30"/>
    </contour>
    <contour>
      <point x="832" y="82" type="curve" smooth="yes"/>
      <point x="514" y="82"/>
      <point x="280" y="296"/>
      <point x="280" y="620" type="curve" smooth="yes"/>
      <point x="280" y="1006"/>
      <point x="574" y="1318"/>
      <point x="956" y="1318" type="curve" smooth="yes"/>
      <point x="1278" y="1318"/>
      <point x="1508" y="1104"/>
      <point x="1508" y="780" type="curve" smooth="yes"/>
      <point x="1508" y="394"/>
      <point x="1214" y="82"/>
    </contour>
  </outline>
</glyph>
<glyph name="oogonek" format="2">
  <advance width="1184"/>
  <unicode hex="01EB"/>
  <anchor x="668" y="960" name="top"/>
  <outline>
    <contour>
      <point x="493" y="-450" type="curve" smooth="yes"/>
      <point x="548" y="-450"/>
      <point x="600" y="-437"/>
      <point x="645" y="-411" type="curve"/>
      <point x="669" y="-298" type="line"/>
      <point x="628" y="-328"/>
      <point x="581" y="-343"/>
      <point x="530" y="-343" type="curve" smooth="yes"/>
      <point x="468" y="-343"/>
      <point x="439" y="-318"/>
      <point x="439" y="-253" type="curve" smooth="yes"/>
      <point x="439" y="-155"/>
      <point x="526" y="-68"/>
      <point x="705" y="-4" type="curve" smooth="yes"/>
      <point x="930" y="76"/>
      <point x="1104" y="289"/>
      <point x="1104" y="538" type="curve" smooth="yes"/>
      <point x="1104" y="786"/>
      <point x="922" y="990"/>
      <point x="644" y="990" type="curve" smooth="yes"/>
      <point x="342" y="990"/>
      <point x="80" y="728"/>
      <point x="80" y="424" type="curve" smooth="yes"/>
      <point x="80" y="190"/>
      <point x="237" y="-1"/>
      <point x="482" y="-27" type="curve"/>
      <point x="375" y="-97"/>
      <point x="313" y="-187"/>
      <point x="313" y="-276" type="curve" smooth="yes"/>
      <point x="313" y="-388"/>
      <point x="384" y="-450"/>
    </contour>
    <contour>
      <point x="554" y="78" type="curve" smooth="yes"/>
      <point x="338" y="78"/>
      <point x="200" y="210"/>
      <point x="200" y="420" type="curve" smooth="yes"/>
      <point x="200" y="672"/>
      <point x="372" y="882"/>
      <point x="630" y="882" type="curve" smooth="yes"/>
      <point x="844" y="882"/>
      <point x="984" y="750"/>
      <point x="984" y="540" type="curve" smooth="yes"/>
      <point x="984" y="288"/>
      <point x="812" y="78"/>
    </contour>
  </outline>
</glyph>
<glyph name="jdotless" format="2">
  <advance width="452"/>
  <unicode hex="0237"/>
  <guideline x="-120" y="-155" angle="257.9659"/>
  <anchor x="329" y="960" name="top"/>
  <outline>
    <contour>
      <point x="-125" y="-450" type="curve" smooth="yes"/>
      <point x="9" y="-450"/>
      <point x="103" y="-364"/>
      <point x="139" y="-194" type="curve" smooth="yes"/>
      <point x="393" y="1000" type="line"/>
      <point x="251" y="858" type="line"/>
      <point x="31" y="-174" type="line" smooth="yes"/>
      <point x="7" y="-286"/>
      <point x="-33" y="-342"/>
      <point x="-123" y="-342" type="curve" smooth="yes"/>
      <point x="-183" y="-342"/>
      <point x="-213" y="-328"/>
      <point x="-241" y="-310" type="curve"/>
      <point x="-264" y="-420" type="line"/>
      <point x="-227" y="-437"/>
      <point x="-179" y="-450"/>
    </contour>
  </outline>
</glyph>
<glyph name="schwa" format="2">
  <advance width="1113"/>
  <unicode hex="0259"/>
  <guideline x="134" y="397" angle="78.0016"/>
  <outline>
    <contour>
      <point x="489" y="-30" type="curve" smooth="yes"/>
      <point x="805" y="-30"/>
      <point x="1035" y="248"/>
      <point x="1035" y="552" type="curve" smooth="yes"/>
      <point x="1035" y="826"/>
      <point x="859" y="990"/>
      <point x="571" y="990" type="curve" smooth="yes"/>
      <point x="433" y="990"/>
      <point x="301" y="948"/>
      <point x="201" y="866" type="curve"/>
      <point x="289" y="990" type="line"/>
      <point x="247" y="794" type="line"/>
      <point x="331" y="850"/>
      <point x="437" y="882"/>
      <point x="555" y="882" type="curve" smooth="yes"/>
      <point x="769" y="882"/>
      <point x="909" y="758"/>
      <point x="909" y="536" type="curve" smooth="yes"/>
      <point x="909" y="300"/>
      <point x="763" y="78"/>
      <point x="505" y="78" type="curve" smooth="yes"/>
      <point x="291" y="78"/>
      <point x="175" y="214"/>
      <point x="201" y="438" type="curve"/>
      <point x="147" y="398" type="line"/>
      <point x="905" y="398" type="line"/>
      <point x="931" y="502" type="line"/>
      <point x="85" y="502" type="line"/>
      <point x="19" y="196"/>
      <point x="187" y="-30"/>
    </contour>
  </outline>
</glyph>
<glyph name="gravecomb" format="2">
  <unicode hex="0300"/>
  <anchor x="-666" y="960" name="_top"/>
  <outline>
    <contour>
      <point x="-648" y="1170" type="line"/>
      <point x="-540" y="1170" type="line"/>
      <point x="-656" y="1504" type="line"/>
      <point x="-778" y="1504" type="line"/>
    </contour>
  </outline>
</glyph>
<glyph name="tildecomb" format="2">
  <unicode hex="0303"/>
  <anchor x="-666" y="960" name="_top"/>
  <anchor x="-584" y="1344" name="top"/>
  <outline>
    <contour>
      <point x="-924" y="1246" type="line"/>
      <point x="-874" y="1302"/>
      <point x="-816" y="1330"/>
      <point x="-743" y="1330" type="curve" smooth="yes"/>
      <point x="-652" y="1330"/>
      <point x="-557" y="1246"/>
      <point x="-441" y="1246" type="curve" smooth="yes"/>
      <point x="-378" y="1246"/>
      <point x="-321" y="1270"/>
      <point x="-272" y="1314" type="curve"/>
      <point x="-248" y="1430" type="line"/>
      <point x="-298" y="1374"/>
      <point x="-356" y="1346"/>
      <point x="-429" y="1346" type="curve" smooth="yes"/>
      <point x="-520" y="1346"/>
      <point x="-615" y="1430"/>
      <point x="-731" y="1430" type="curve" smooth="yes"/>
      <point x="-794" y="1430"/>
      <point x="-851" y="1406"/>
      <point x="-900" y="1362" type="curve"/>
    </contour>
  </outline>
</glyph>
<glyph name="macroncomb" format="2">
  <unicode hex="0304"/>
  <anchor x="-482" y="960" name="_top"/>
  <outline>
    <contour>
      <point x="-714" y="1230" type="line"/>
      <point x="-138" y="1230" type="line"/>
      <point x="-114" y="1334" type="line"/>
      <point x="-690" y="1334" type="line"/>
    </contour>
  </outline>
</glyph>
<glyph name="dieresiscomb" format="2">
  <unicode hex="0308"/>
  <anchor x="-648" y="960" name="_top"/>
  <anchor x="-580" y="1284" name="top"/>
  <outline>
    <contour>
      <point x="-760" y="1162" type="curve" smooth="yes"/>
      <point x="-706" y="1162"/>
      <point x="-652" y="1210"/>
      <point x="-652" y="1266" type="curve" smooth="yes"/>
      <point x="-652" y="1312"/>
      <point x="-688" y="1350"/>
      <point x="-736" y="1350" type="curve" smooth="yes"/>
      <point x="-790" y="1350"/>
      <point x="-844" y="1302"/>
      <point x="-844" y="1246" type="curve" smooth="yes"/>
      <point x="-844" y="1202"/>
      <point x="-808" y="1162"/>
    </contour>
    <contour>
      <point x="-436" y="1162" type="curve" smooth="yes"/>
      <point x="-382" y="1162"/>
      <point x="-328" y="1210"/>
      <point x="-328" y="1266" type="curve" smooth="yes"/>
      <point x="-328" y="1312"/>
      <point x="-364" y="1350"/>
      <point x="-412" y="1350" type="curve" smooth="yes"/>
      <point x="-466" y="1350"/>
      <point x="-520" y="1302"/>
      <point x="-520" y="1246" type="curve" smooth="yes"/>
      <point x="-520" y="1202"/>
      <point x="-484" y="1162"/>
    </contour>
  </outline>
</glyph>
<glyph name="hookabovecomb" format="2">
  <unicode hex="0309"/>
  <guideline x="-378" y="760" angle="78.0239"/>
  <anchor x="-680" y="960" name="_top"/>
  <outline>
    <contour>
      <point x="-682" y="1170" type="curve"/>
      <point x="-592" y="1170" type="line"/>
      <point x="-612" y="1252"/>
      <point x="-596" y="1274"/>
      <point x="-500" y="1310" type="curve" smooth="yes"/>
      <point x="-408" y="1344"/>
      <point x="-332" y="1384"/>
      <point x="-332" y="1480" type="curve" smooth="yes"/>
      <point x="-332" y="1582"/>
      <point x="-452" y="1634"/>
      <point x="-586" y="1634" type="curve" smooth="yes"/>
      <point x="-646" y="1634"/>
      <point x="-706" y="1624"/>
      <point x="-758" y="1606" type="curve"/>
      <point x="-776" y="1520" type="line"/>
      <point x="-722" y="1540"/>
      <point x="-652" y="1550"/>
      <point x="-588" y="1550" type="curve" smooth="yes"/>
      <point x="-498" y="1550"/>
      <point x="-432" y="1514"/>
      <point x="-432" y="1458" type="curve" smooth="yes"/>
      <point x="-432" y="1398"/>
      <point x="-482" y="1384"/>
      <point x="-562" y="1360" type="curve" smooth="yes"/>
      <point x="-678" y="1326"/>
      <point x="-716" y="1268"/>
    </contour>
  </outline>
</glyph>
<glyph name="ringcomb" format="2">
  <unicode hex="030A"/>
  <anchor x="-666" y="960" name="_top"/>
  <anchor x="-558" y="1464" name="top"/>
  <outline>
    <contour>
      <point x="-610" y="1100" type="curve" smooth="yes"/>
      <point x="-468" y="1100"/>
      <point x="-338" y="1208"/>
      <point x="-338" y="1352" type="curve" smooth="yes"/>
      <point x="-338" y="1472"/>
      <point x="-434" y="1566"/>
      <point x="-562" y="1566" type="curve" smooth="yes"/>
      <point x="-704" y="1566"/>
      <point x="-836" y="1452"/>
      <point x="-836" y="1310" type="curve" smooth="yes"/>
      <point x="-836" y="1190"/>
      <point x="-742" y="1100"/>
    </contour>
    <contour>
      <point x="-602" y="1188" type="curve" smooth="yes"/>
      <point x="-684" y="1188"/>
      <point x="-732" y="1244"/>
      <point x="-732" y="1316" type="curve" smooth="yes"/>
      <point x="-732" y="1400"/>
      <point x="-664" y="1474"/>
      <point x="-576" y="1474" type="curve" smooth="yes"/>
      <point x="-492" y="1474"/>
      <point x="-442" y="1422"/>
      <point x="-442" y="1348" type="curve" smooth="yes"/>
      <point x="-442" y="1262"/>
      <point x="-512" y="1188"/>
    </contour>
  </outline>
</glyph>
<glyph name="commaturnedabovecomb" format="2">
  <unicode hex="0312"/>
  <anchor x="-686" y="960" name="_top"/>
  <outline>
    <contour>
      <point x="-596" y="1244" type="curve" smooth="yes"/>
      <point x="-540" y="1244"/>
      <point x="-495" y="1281"/>
      <point x="-495" y="1335" type="curve" smooth="yes"/>
      <point x="-495" y="1388"/>
      <point x="-553" y="1423"/>
      <point x="-603" y="1414" type="curve"/>
      <point x="-587" y="1477"/>
      <point x="-510" y="1531"/>
      <point x="-413" y="1534" type="curve"/>
      <point x="-399" y="1606" type="line"/>
      <point x="-563" y="1601"/>
      <point x="-702" y="1491"/>
      <point x="-702" y="1352" type="curve" smooth="yes"/>
      <point x="-702" y="1286"/>
      <point x="-660" y="1244"/>
    </contour>
  </outline>
</glyph>
<glyph name="dotbelowcomb" format="2">
  <unicode hex="0323"/>
  <anchor x="-506" y="0" name="_bottom"/>
  <outline>
    <contour>
      <point x="-598" y="-472" type="curve" smooth="yes"/>
      <point x="-544" y="-472"/>
      <point x="-490" y="-424"/>
      <point x="-490" y="-368" type="curve" smooth="yes"/>
      <point x="-490" y="-322"/>
      <point x="-526" y="-284"/>
      <point x="-574" y="-284" type="curve" smooth="yes"/>
      <point x="-628" y="-284"/>
      <point x="-682" y="-332"/>
      <point x="-682" y="-388" type="curve" smooth="yes"/>
      <point x="-682" y="-432"/>
      <point x="-646" y="-472"/>
    </contour>
  </outline>
</glyph>
<glyph name="commaaccentcomb" format="2">
  <unicode hex="0326"/>
  <anchor x="-486" y="0" name="_bottom"/>
  <outline>
    <contour>
      <point x="-773" y="-646" type="line"/>
      <point x="-609" y="-641"/>
      <point x="-470" y="-531"/>
      <point x="-470" y="-392" type="curve" smooth="yes"/>
      <point x="-470" y="-326"/>
      <point x="-512" y="-284"/>
      <point x="-576" y="-284" type="curve" smooth="yes"/>
      <point x="-632" y="-284"/>
      <point x="-677" y="-321"/>
      <point x="-677" y="-375" type="curve" smooth="yes"/>
      <point x="-677" y="-428"/>
      <point x="-619" y="-463"/>
      <point x="-569" y="-454" type="curve"/>
      <point x="-585" y="-517"/>
      <point x="-662" y="-571"/>
      <point x="-759" y="-574" type="curve"/>
    </contour>
  </outline>
</glyph>
<glyph name="cedillacomb" format="2">
  <unicode hex="0327"/>
  <guideline x="-393" y="-151" angle="78"/>
  <anchor x="-542" y="0" name="_bottom"/>
  <outline>
    <contour>
      <point x="-626" y="-448" type="curve" smooth="yes"/>
      <point x="-490" y="-448"/>
      <point x="-378" y="-378"/>
      <point x="-378" y="-254" type="curve" smooth="yes"/>
      <point x="-378" y="-164"/>
      <point x="-458" y="-110"/>
      <point x="-570" y="-96" type="curve"/>
      <point x="-496" y="40" type="line"/>
      <point x="-578" y="40" type="line"/>
      <point x="-668" y="-126" type="line"/>
      <point x="-646" y="-184" type="line"/>
      <point x="-568" y="-180"/>
      <point x="-488" y="-206"/>
      <point x="-488" y="-264" type="curve" smooth="yes"/>
      <point x="-488" y="-338"/>
      <point x="-554" y="-360"/>
      <point x="-626" y="-360" type="curve" smooth="yes"/>
      <point x="-708" y="-360"/>
      <point x="-780" y="-332"/>
      <point x="-806" y="-302" type="curve"/>
      <point x="-824" y="-392" type="line"/>
      <point x="-766" y="-428"/>
      <point x="-718" y="-448"/>
    </contour>
  </outline>
</glyph>
<glyph name="brevebelowcomb" format="2">
  <unicode hex="032E"/>
  <anchor x="-504" y="0" name="_bottom"/>
  <outline>
    <contour>
      <point x="-594" y="-554" type="curve" smooth="yes"/>
      <point x="-406" y="-554"/>
      <point x="-250" y="-410"/>
      <point x="-234" y="-210" type="curve"/>
      <point x="-336" y="-210" type="line"/>
      <point x="-348" y="-360"/>
      <point x="-446" y="-458"/>
      <point x="-582" y="-458" type="curve" smooth="yes"/>
      <point x="-728" y="-458"/>
      <point x="-804" y="-362"/>
      <point x="-784" y="-210" type="curve"/>
      <point x="-886" y="-210" type="line"/>
      <point x="-918" y="-404"/>
      <point x="-796" y="-554"/>
    </contour>
  </outline>
</glyph>
<glyph name="tonos" format="2">
  <unicode hex="0384"/>
  <anchor x="-586" y="960" name="_top"/>
  <outline>
    <contour>
      <point x="-604" y="1170" type="line"/>
      <point x="-496" y="1170" type="line"/>
      <point x="-282" y="1504" type="line"/>
      <point x="-402" y="1504" type="line"/>
    </contour>
  </outline>
</glyph>
<glyph name="dieresistonos" format="2">
  <unicode hex="0385"/>
  <anchor x="-586" y="960" name="_top"/>
  <outline>
    <contour>
      <point x="-586" y="1216" type="line"/>
      <point x="-490" y="1216" type="line"/>
      <point x="-350" y="1504" type="line"/>
      <point x="-458" y="1504" type="line"/>
    </contour>
    <contour>
      <point x="-760" y="1162" type="curve" smooth="yes"/>
      <point x="-708" y="1162"/>
      <point x="-658" y="1204"/>
      <point x="-646" y="1256" type="curve" smooth="yes"/>
      <point x="-634" y="1308"/>
      <point x="-668" y="1350"/>
      <point x="-720" y="1350" type="curve" smooth="yes"/>
      <point x="-772" y="1350"/>
      <point x="-824" y="1308"/>
      <point x="-834" y="1256" type="curve" smooth="yes"/>
      <point x="-844" y="1204"/>
      <point x="-812" y="1162"/>
    </contour>
    <contour>
      <point x="-304" y="1162" type="curve" smooth="yes"/>
      <point x="-252" y="1162"/>
      <point x="-202" y="1204"/>
      <point x="-190" y="1256" type="curve" smooth="yes"/>
      <point x="-178" y="1308"/>
      <point x="-212" y="1350"/>
      <point x="-264" y="1350" type="curve" smooth="yes"/>
      <point x="-316" y="1350"/>
      <point x="-368" y="1308"/>
      <point x="-378" y="1256" type="curve" smooth="yes"/>
      <point x="-388" y="1204"/>
      <point x="-356" y="1162"/>
    </contour>
  </outline>
</glyph>
<glyph name="Delta" format="2">
  <advance width="1323"/>
  <unicode hex="0394"/>
  <guideline x="1187" y="41" angle="246.8858"/>
  <outline>
    <contour>
      <point x="-60" y="0" type="line"/>
      <point x="1169" y="0" type="line"/>
      <point x="1204" y="82" type="line"/>
      <point x="894" y="1400" type="line"/>
      <point x="794" y="1400" type="line"/>
      <point x="-40" y="98" type="line"/>
    </contour>
    <contour>
      <point x="100" y="108" type="line"/>
      <point x="812" y="1228" type="line"/>
      <point x="1070" y="108" type="line"/>
    </contour>
  </outline>
</glyph>
<glyph name="Theta" format="2">
  <advance width="1696"/>
  <unicode hex="0398"/>
  <outline>
    <contour>
      <point x="820" y="-30" type="curve" smooth="yes"/>
      <point x="1260" y="-30"/>
      <point x="1630" y="342"/>
      <point x="1630" y="782" type="curve" smooth="yes"/>
      <point x="1630" y="1148"/>
      <point x="1358" y="1430"/>
      <point x="966" y="1430" type="curve" smooth="yes"/>
      <point x="524" y="1430"/>
      <point x="158" y="1060"/>
      <point x="158" y="614" type="curve" smooth="yes"/>
      <point x="158" y="246"/>
      <point x="428" y="-30"/>
    </contour>
    <contour>
      <point x="516" y="652" type="line"/>
      <point x="1220" y="652" type="line"/>
      <point x="1242" y="760" type="line"/>
      <point x="562" y="760" type="line"/>
    </contour>
    <contour>
      <point x="832" y="82" type="curve" smooth="yes"/>
      <point x="514" y="82"/>
      <point x="280" y="296"/>
      <point x="280" y="620" type="curve" smooth="yes"/>
      <point x="280" y="1006"/>
      <point x="574" y="1318"/>
      <point x="956" y="1318" type="curve" smooth="yes"/>
      <point x="1278" y="1318"/>
      <point x="1508" y="1104"/>
      <point x="1508" y="780" type="curve" smooth="yes"/>
      <point x="1508" y="394"/>
      <point x="1214" y="82"/>
    </contour>
  </outline>
</glyph>
<glyph name="Sigma" format="2">
  <advance width="1117"/>
  <unicode hex="03A3"/>
  <outline>
    <contour>
      <point x="-18" y="0" type="line"/>
      <point x="886" y="0" type="line"/>
      <point x="932" y="108" type="line"/>
      <point x="158" y="108" type="line"/>
      <point x="712" y="724" type="line"/>
      <point x="400" y="1292" type="line"/>
      <point x="1148" y="1292" type="line"/>
      <point x="1170" y="1400" type="line"/>
      <point x="288" y="1400" type="line"/>
      <point x="268" y="1302" type="line"/>
      <point x="580" y="732" type="line"/>
      <point x="2" y="98" type="line"/>
    </contour>
  </outline>
</glyph>
<glyph name="beta" format="2">
  <advance width="1160"/>
  <unicode hex="03B2"/>
  <outline>
    <contour>
      <point x="-21" y="-420" type="line"/>
      <point x="91" y="-420" type="line"/>
      <point x="221" y="194" type="line"/>
      <point x="261" y="50"/>
      <point x="429" y="-20"/>
      <point x="587" y="-20" type="curve" smooth="yes"/>
      <point x="875" y="-20"/>
      <point x="1061" y="180"/>
      <point x="1061" y="448" type="curve" smooth="yes"/>
      <point x="1061" y="606"/>
      <point x="991" y="728"/>
      <point x="849" y="774" type="curve"/>
      <point x="1017" y="838"/>
      <point x="1137" y="970"/>
      <point x="1137" y="1148" type="curve" smooth="yes"/>
      <point x="1137" y="1340"/>
      <point x="995" y="1470"/>
      <point x="765" y="1470" type="curve" smooth="yes"/>
      <point x="529" y="1470"/>
      <point x="351" y="1332"/>
      <point x="297" y="1076" type="curve" smooth="yes"/>
    </contour>
    <contour>
      <point x="599" y="88" type="curve" smooth="yes"/>
      <point x="365" y="88"/>
      <point x="231" y="264"/>
      <point x="281" y="480" type="curve" smooth="yes"/>
      <point x="409" y="1070" type="line" smooth="yes"/>
      <point x="453" y="1270"/>
      <point x="565" y="1362"/>
      <point x="751" y="1362" type="curve" smooth="yes"/>
      <point x="913" y="1362"/>
      <point x="1017" y="1282"/>
      <point x="1017" y="1134" type="curve" smooth="yes"/>
      <point x="1017" y="954"/>
      <point x="865" y="824"/>
      <point x="681" y="824" type="curve" smooth="yes"/>
      <point x="579" y="824" type="line"/>
      <point x="557" y="720" type="line"/>
      <point x="675" y="720" type="line" smooth="yes"/>
      <point x="835" y="720"/>
      <point x="941" y="622"/>
      <point x="941" y="440" type="curve" smooth="yes"/>
      <point x="941" y="238"/>
      <point x="827" y="88"/>
    </contour>
  </outline>
</glyph>
<glyph name="epsilon" format="2">
  <advance width="971"/>
  <unicode hex="03B5"/>
  <anchor x="557" y="960" name="top"/>
  <outline>
    <contour>
      <point x="435" y="-30" type="curve" smooth="yes"/>
      <point x="551" y="-30"/>
      <point x="663" y="-10"/>
      <point x="783" y="44" type="curve"/>
      <point x="811" y="174" type="line"/>
      <point x="715" y="112"/>
      <point x="579" y="78"/>
      <point x="439" y="78" type="curve" smooth="yes"/>
      <point x="263" y="78"/>
      <point x="163" y="146"/>
      <point x="163" y="254" type="curve" smooth="yes"/>
      <point x="163" y="388"/>
      <point x="319" y="440"/>
      <point x="499" y="440" type="curve" smooth="yes"/>
      <point x="667" y="440" type="line"/>
      <point x="689" y="544" type="line"/>
      <point x="521" y="544" type="line" smooth="yes"/>
      <point x="381" y="544"/>
      <point x="283" y="600"/>
      <point x="283" y="704" type="curve" smooth="yes"/>
      <point x="283" y="830"/>
      <point x="429" y="880"/>
      <point x="595" y="880" type="curve" smooth="yes"/>
      <point x="729" y="880"/>
      <point x="837" y="858"/>
      <point x="907" y="808" type="curve"/>
      <point x="931" y="924" type="line"/>
      <point x="841" y="970"/>
      <point x="721" y="988"/>
      <point x="603" y="988" type="curve" smooth="yes"/>
      <point x="369" y="988"/>
      <point x="165" y="892"/>
      <point x="165" y="712" type="curve" smooth="yes"/>
      <point x="165" y="614"/>
      <point x="227" y="552"/>
      <point x="325" y="506" type="curve"/>
      <point x="165" y="468"/>
      <point x="43" y="380"/>
      <point x="43" y="232" type="curve" smooth="yes"/>
      <point x="43" y="64"/>
      <point x="197" y="-30"/>
    </contour>
  </outline>
</glyph>
<glyph name="zeta" format="2">
  <advance width="886"/>
  <unicode hex="03B6"/>
  <outline>
    <contour>
      <point x="565" y="-420" type="line"/>
      <point x="655" y="-322"/>
      <point x="702" y="-223"/>
      <point x="702" y="-134" type="curve" smooth="yes"/>
      <point x="702" y="140"/>
      <point x="204" y="151"/>
      <point x="204" y="455" type="curve" smooth="yes"/>
      <point x="204" y="750"/>
      <point x="688" y="1100"/>
      <point x="1034" y="1344" type="curve"/>
      <point x="1056" y="1440" type="line"/>
      <point x="324" y="1440" type="line"/>
      <point x="278" y="1336" type="line"/>
      <point x="878" y="1336" type="line"/>
      <point x="520" y="1087"/>
      <point x="80" y="763"/>
      <point x="80" y="442" type="curve" smooth="yes"/>
      <point x="80" y="80"/>
      <point x="583" y="46"/>
      <point x="583" y="-168" type="curve" smooth="yes"/>
      <point x="583" y="-229"/>
      <point x="539" y="-306"/>
      <point x="432" y="-420" type="curve"/>
    </contour>
  </outline>
</glyph>
<glyph name="iota" format="2">
  <advance width="551"/>
  <unicode hex="03B9"/>
  <anchor x="317" y="960" name="top"/>
  <outline>
    <contour>
      <point x="281" y="-30" type="curve" smooth="yes"/>
      <point x="317" y="-30"/>
      <point x="375" y="-24"/>
      <point x="395" y="-14" type="curve"/>
      <point x="419" y="98" type="line"/>
      <point x="375" y="86"/>
      <point x="337" y="78"/>
      <point x="305" y="78" type="curve" smooth="yes"/>
      <point x="209" y="78"/>
      <point x="205" y="150"/>
      <point x="225" y="256" type="curve" smooth="yes"/>
      <point x="383" y="1000" type="line"/>
      <point x="241" y="860" type="line"/>
      <point x="101" y="204" type="line" smooth="yes"/>
      <point x="69" y="62"/>
      <point x="137" y="-30"/>
    </contour>
  </outline>
</glyph>
<glyph name="lambda" format="2">
  <advance width="1054"/>
  <unicode hex="03BB"/>
  <outline>
    <contour>
      <point x="-50" y="0" type="line"/>
      <point x="84" y="0" type="line"/>
      <point x="640" y="846" type="line"/>
      <point x="782" y="0" type="line"/>
      <point x="900" y="0" type="line"/>
      <point x="680" y="1292" type="line" smooth="yes"/>
      <point x="660" y="1412"/>
      <point x="590" y="1470"/>
      <point x="480" y="1470" type="curve" smooth="yes"/>
      <point x="444" y="1470"/>
      <point x="406" y="1464"/>
      <point x="350" y="1446" type="curve"/>
      <point x="332" y="1340" type="line"/>
      <point x="386" y="1358"/>
      <point x="430" y="1362"/>
      <point x="452" y="1362" type="curve" smooth="yes"/>
      <point x="540" y="1362"/>
      <point x="568" y="1300"/>
      <point x="580" y="1214" type="curve" smooth="yes"/>
      <point x="612" y="998" type="line"/>
    </contour>
  </outline>
</glyph>
<glyph name="pi" format="2">
  <advance width="1243"/>
  <unicode hex="03C0"/>
  <outline>
    <contour>
      <point x="889" y="-28" type="curve" smooth="yes"/>
      <point x="935" y="-28"/>
      <point x="987" y="-16"/>
      <point x="1033" y="-4" type="curve"/>
      <point x="1027" y="100" type="line"/>
      <point x="993" y="88"/>
      <point x="957" y="80"/>
      <point x="925" y="80" type="curve" smooth="yes"/>
      <point x="845" y="80"/>
      <point x="835" y="124"/>
      <point x="865" y="268" type="curve" smooth="yes"/>
      <point x="989" y="852" type="line"/>
      <point x="1215" y="852" type="line"/>
      <point x="1239" y="960" type="line"/>
      <point x="207" y="960" type="line"/>
      <point x="159" y="852" type="line"/>
      <point x="377" y="852" type="line"/>
      <point x="153" y="0" type="line"/>
      <point x="267" y="0" type="line"/>
      <point x="491" y="852" type="line"/>
      <point x="877" y="852" type="line"/>
      <point x="739" y="204" type="line" smooth="yes"/>
      <point x="703" y="36"/>
      <point x="775" y="-28"/>
    </contour>
  </outline>
</glyph>
<glyph name="sigmafinal" format="2">
  <advance width="930"/>
  <unicode hex="03C2"/>
  <outline>
    <contour>
      <point x="575" y="-420" type="line"/>
      <point x="664" y="-320"/>
      <point x="711" y="-222"/>
      <point x="711" y="-134" type="curve" smooth="yes"/>
      <point x="711" y="141"/>
      <point x="209" y="132"/>
      <point x="209" y="468" type="curve" smooth="yes"/>
      <point x="209" y="697"/>
      <point x="362" y="882"/>
      <point x="609" y="882" type="curve" smooth="yes"/>
      <point x="745" y="882"/>
      <point x="858" y="852"/>
      <point x="927" y="792" type="curve"/>
      <point x="952" y="909" type="line"/>
      <point x="865" y="965"/>
      <point x="764" y="990"/>
      <point x="639" y="990" type="curve" smooth="yes"/>
      <point x="330" y="990"/>
      <point x="89" y="761"/>
      <point x="89" y="466" type="curve" smooth="yes"/>
      <point x="89" y="66"/>
      <point x="592" y="51"/>
      <point x="592" y="-168" type="curve" smooth="yes"/>
      <point x="592" y="-231"/>
      <point x="540" y="-318"/>
      <point x="438" y="-420" type="curve"/>
    </contour>
  </outline>
</glyph>
<glyph name="upsilon" format="2">
  <advance width="1099"/>
  <unicode hex="03C5"/>
  <anchor x="616" y="960" name="top"/>
  <outline>
    <contour>
      <point x="442" y="-30" type="curve" smooth="yes"/>
      <point x="764" y="-30"/>
      <point x="960" y="241"/>
      <point x="960" y="616" type="curve" smooth="yes"/>
      <point x="960" y="730"/>
      <point x="941" y="845"/>
      <point x="903" y="960" type="curve"/>
      <point x="772" y="960" type="line"/>
      <point x="817" y="852"/>
      <point x="841" y="739"/>
      <point x="841" y="621" type="curve" smooth="yes"/>
      <point x="841" y="318"/>
      <point x="713" y="80"/>
      <point x="450" y="80" type="curve" smooth="yes"/>
      <point x="288" y="80"/>
      <point x="208" y="170"/>
      <point x="258" y="402" type="curve" smooth="yes"/>
      <point x="386" y="1000" type="line"/>
      <point x="242" y="860" type="line"/>
      <point x="138" y="374" type="line" smooth="yes"/>
      <point x="84" y="122"/>
      <point x="218" y="-30"/>
    </contour>
  </outline>
</glyph>
<glyph name="phi" format="2">
  <advance width="1335"/>
  <unicode hex="03C6"/>
  <guideline x="384" y="-420" angle="90"/>
  <outline>
    <contour>
      <point x="384" y="-420" type="line"/>
      <point x="496" y="-420" type="line"/>
      <point x="714" y="620" type="line" smooth="yes"/>
      <point x="754" y="812"/>
      <point x="811" y="884"/>
      <point x="942" y="884" type="curve" smooth="yes"/>
      <point x="1057" y="884"/>
      <point x="1142" y="793"/>
      <point x="1142" y="608" type="curve" smooth="yes"/>
      <point x="1142" y="315"/>
      <point x="942" y="95"/>
      <point x="614" y="95" type="curve" smooth="yes"/>
      <point x="379" y="95"/>
      <point x="215" y="214"/>
      <point x="215" y="462" type="curve" smooth="yes"/>
      <point x="215" y="653"/>
      <point x="318" y="836"/>
      <point x="477" y="960" type="curve"/>
      <point x="332" y="960" type="line"/>
      <point x="187" y="830"/>
      <point x="93" y="652"/>
      <point x="93" y="453" type="curve" smooth="yes"/>
      <point x="93" y="153"/>
      <point x="297" y="-10"/>
      <point x="597" y="-10" type="curve" smooth="yes"/>
      <point x="990" y="-10"/>
      <point x="1264" y="261"/>
      <point x="1264" y="616" type="curve" smooth="yes"/>
      <point x="1264" y="859"/>
      <point x="1133" y="990"/>
      <point x="956" y="990" type="curve" smooth="yes"/>
      <point x="770" y="990"/>
      <point x="655" y="871"/>
      <point x="603" y="625" type="curve" smooth="yes"/>
    </contour>
  </outline>
</glyph>
<glyph name="chi" format="2">
  <advance width="1062"/>
  <unicode hex="03C7"/>
  <outline>
    <contour>
      <point x="-129" y="-420" type="line"/>
      <point x="17" y="-420" type="line"/>
      <point x="517" y="260" type="line"/>
      <point x="491" y="262" type="line"/>
      <point x="675" y="-420" type="line"/>
      <point x="799" y="-420" type="line"/>
      <point x="581" y="364" type="line"/>
      <point x="561" y="276" type="line"/>
      <point x="1063" y="960" type="line"/>
      <point x="919" y="960" type="line"/>
      <point x="515" y="398" type="line"/>
      <point x="549" y="398" type="line"/>
      <point x="437" y="822" type="line" smooth="yes"/>
      <point x="398" y="968"/>
      <point x="305" y="1010"/>
      <point x="149" y="980" type="curve"/>
      <point x="141" y="880" type="line"/>
      <point x="271" y="910"/>
      <point x="313" y="858"/>
      <point x="341" y="748" type="curve" smooth="yes"/>
      <point x="459" y="290" type="line"/>
      <point x="479" y="380" type="line"/>
    </contour>
  </outline>
</glyph>
<glyph name="psi" format="2">
  <advance width="1397"/>
  <unicode hex="03C8"/>
  <outline>
    <contour>
      <point x="443" y="-420" type="line"/>
      <point x="555" y="-420" type="line"/>
      <point x="643" y="0" type="line"/>
      <point x="1029" y="0"/>
      <point x="1264" y="263"/>
      <point x="1264" y="626" type="curve" smooth="yes"/>
      <point x="1264" y="737"/>
      <point x="1245" y="848"/>
      <point x="1208" y="960" type="curve"/>
      <point x="1076" y="960" type="line"/>
      <point x="1121" y="855"/>
      <point x="1145" y="746"/>
      <point x="1145" y="631" type="curve" smooth="yes"/>
      <point x="1145" y="338"/>
      <point x="989" y="108"/>
      <point x="667" y="108" type="curve"/>
      <point x="915" y="1280" type="line"/>
      <point x="803" y="1280" type="line"/>
      <point x="555" y="108" type="line"/>
      <point x="283" y="120"/>
      <point x="225" y="254"/>
      <point x="285" y="536" type="curve" smooth="yes"/>
      <point x="385" y="1000" type="line"/>
      <point x="243" y="860" type="line"/>
      <point x="173" y="536" type="line" smooth="yes"/>
      <point x="101" y="198"/>
      <point x="201" y="12"/>
      <point x="531" y="0" type="curve"/>
    </contour>
  </outline>
</glyph>
<glyph name="omega" format="2">
  <advance width="1604"/>
  <unicode hex="03C9"/>
  <anchor x="702" y="0" name="bottom"/>
  <anchor x="904" y="960" name="top"/>
  <outline>
    <contour>
      <point x="422" y="-21" type="curve" smooth="yes"/>
      <point x="540" y="-21"/>
      <point x="663" y="45"/>
      <point x="739" y="192" type="curve"/>
      <point x="758" y="68"/>
      <point x="883" y="-20"/>
      <point x="1020" y="-20" type="curve" smooth="yes"/>
      <point x="1298" y="-20"/>
      <point x="1467" y="293"/>
      <point x="1467" y="626" type="curve" smooth="yes"/>
      <point x="1467" y="737"/>
      <point x="1448" y="848"/>
      <point x="1411" y="960" type="curve"/>
      <point x="1279" y="960" type="line"/>
      <point x="1324" y="855"/>
      <point x="1348" y="746"/>
      <point x="1348" y="631" type="curve" smooth="yes"/>
      <point x="1348" y="369"/>
      <point x="1241" y="90"/>
      <point x="1021" y="90" type="curve" smooth="yes"/>
      <point x="840" y="90"/>
      <point x="798" y="228"/>
      <point x="849" y="428" type="curve" smooth="yes"/>
      <point x="905" y="694" type="line"/>
      <point x="785" y="694" type="line"/>
      <point x="729" y="428" type="line" smooth="yes"/>
      <point x="682" y="214"/>
      <point x="604" y="90"/>
      <point x="455" y="90" type="curve" smooth="yes"/>
      <point x="314" y="90"/>
      <point x="252" y="189"/>
      <point x="252" y="335" type="curve" smooth="yes"/>
      <point x="252" y="549"/>
      <point x="366" y="798"/>
      <point x="529" y="960" type="curve"/>
      <point x="397" y="960" type="line"/>
      <point x="239" y="805"/>
      <point x="131" y="549"/>
      <point x="131" y="334" type="curve" smooth="yes"/>
      <point x="131" y="130"/>
      <point x="231" y="-21"/>
    </contour>
  </outline>
</glyph>
<glyph name="KaiSymbol" format="2">
  <advance width="1316"/>
  <unicode hex="03CF"/>
  <outline>
    <contour>
      <point x="568" y="-420" type="line"/>
      <point x="722" y="-420" type="line"/>
      <point x="1124" y="0" type="line"/>
      <point x="690" y="772" type="line"/>
      <point x="1332" y="1400" type="line"/>
      <point x="1186" y="1400" type="line"/>
      <point x="334" y="568" type="line"/>
      <point x="512" y="1400" type="line"/>
      <point x="396" y="1400" type="line"/>
      <point x="100" y="0" type="line"/>
      <point x="214" y="0" type="line"/>
      <point x="298" y="394" type="line"/>
      <point x="600" y="684" type="line"/>
      <point x="974" y="12" type="line"/>
    </contour>
  </outline>
</glyph>
<glyph name="E-cy" format="2">
  <advance width="1399"/>
  <unicode hex="0404"/>
  <guideline x="674" y="587" angle="78.0239"/>
  <guideline x="616" y="101" angle="78.0239"/>
  <outline>
    <contour>
      <point x="820" y="-30" type="curve" smooth="yes"/>
      <point x="964" y="-30"/>
      <point x="1098" y="0"/>
      <point x="1224" y="70" type="curve"/>
      <point x="1252" y="202" type="line"/>
      <point x="1126" y="118"/>
      <point x="992" y="82"/>
      <point x="848" y="82" type="curve" smooth="yes"/>
      <point x="496" y="82"/>
      <point x="278" y="272"/>
      <point x="278" y="598" type="curve" smooth="yes"/>
      <point x="278" y="1000"/>
      <point x="538" y="1320"/>
      <point x="946" y="1320" type="curve" smooth="yes"/>
      <point x="1128" y="1320"/>
      <point x="1272" y="1270"/>
      <point x="1368" y="1172" type="curve"/>
      <point x="1394" y="1296" type="line"/>
      <point x="1292" y="1382"/>
      <point x="1144" y="1430"/>
      <point x="954" y="1430" type="curve" smooth="yes"/>
      <point x="496" y="1430"/>
      <point x="154" y="1042"/>
      <point x="154" y="582" type="curve" smooth="yes"/>
      <point x="154" y="214"/>
      <point x="404" y="-30"/>
    </contour>
    <contour>
      <point x="256" y="688" type="line"/>
      <point x="1136" y="688" type="line"/>
      <point x="1160" y="796" type="line"/>
      <point x="280" y="796" type="line"/>
    </contour>
  </outline>
</glyph>
<glyph name="Lje-cy" format="2">
  <advance width="2139"/>
  <unicode hex="0409"/>
  <outline>
    <contour>
      <point x="-4" y="-20" type="line"/>
      <point x="194" y="-44"/>
      <point x="374" y="28"/>
      <point x="428" y="280" type="curve" smooth="yes"/>
      <point x="644" y="1292" type="line"/>
      <point x="1296" y="1292" type="line"/>
      <point x="1434" y="1400" type="line"/>
      <point x="550" y="1400" type="line"/>
      <point x="316" y="300" type="line" smooth="yes"/>
      <point x="278" y="120"/>
      <point x="166" y="74"/>
      <point x="20" y="88" type="curve"/>
    </contour>
    <contour>
      <point x="1158" y="108" type="line"/>
      <point x="1282" y="688" type="line"/>
      <point x="1572" y="688" type="line" smooth="yes"/>
      <point x="1808" y="688"/>
      <point x="1918" y="596"/>
      <point x="1916" y="420" type="curve" smooth="yes"/>
      <point x="1914" y="216"/>
      <point x="1772" y="108"/>
      <point x="1526" y="108" type="curve" smooth="yes"/>
    </contour>
    <contour>
      <point x="1020" y="0" type="line"/>
      <point x="1522" y="0" type="line" smooth="yes"/>
      <point x="1828" y="0"/>
      <point x="2028" y="180"/>
      <point x="2030" y="434" type="curve" smooth="yes"/>
      <point x="2032" y="656"/>
      <point x="1864" y="796"/>
      <point x="1586" y="796" type="curve" smooth="yes"/>
      <point x="1304" y="796" type="line"/>
      <point x="1434" y="1400" type="line"/>
      <point x="1316" y="1400" type="line"/>
    </contour>
  </outline>
</glyph>
<glyph name="Tshe-cy" format="2">
  <advance width="1614"/>
  <unicode hex="040B"/>
  <outline>
    <contour>
      <point x="232" y="1292" type="line"/>
      <point x="1466" y="1292" type="line"/>
      <point x="1488" y="1400" type="line"/>
      <point x="278" y="1400" type="line"/>
    </contour>
    <contour>
      <point x="384" y="0" type="line"/>
      <point x="500" y="0" type="line"/>
      <point x="648" y="700" type="line"/>
      <point x="764" y="730"/>
      <point x="878" y="748"/>
      <point x="1026" y="748" type="curve" smooth="yes"/>
      <point x="1288" y="748"/>
      <point x="1414" y="638"/>
      <point x="1348" y="338" type="curve" smooth="yes"/>
      <point x="1274" y="0" type="line"/>
      <point x="1390" y="0" type="line"/>
      <point x="1468" y="358" type="line" smooth="yes"/>
      <point x="1546" y="714"/>
      <point x="1392" y="866"/>
      <point x="1052" y="866" type="curve" smooth="yes"/>
      <point x="914" y="866"/>
      <point x="796" y="846"/>
      <point x="674" y="810" type="curve"/>
      <point x="796" y="1400" type="line"/>
      <point x="680" y="1400" type="line"/>
    </contour>
  </outline>
</glyph>
<glyph name="De-cy" format="2">
  <advance width="1557"/>
  <unicode hex="0414"/>
  <outline>
    <contour>
      <point x="1058" y="0" type="line"/>
      <point x="1174" y="0" type="line"/>
      <point x="1472" y="1400" type="line"/>
      <point x="550" y="1400" type="line"/>
      <point x="316" y="300" type="line" smooth="yes"/>
      <point x="280" y="128"/>
      <point x="168" y="84"/>
      <point x="22" y="98" type="curve"/>
      <point x="6" y="20" type="line"/>
      <point x="202" y="0"/>
      <point x="382" y="62"/>
      <point x="428" y="280" type="curve" smooth="yes"/>
      <point x="644" y="1292" type="line"/>
      <point x="1334" y="1292" type="line"/>
    </contour>
    <contour>
      <point x="-90" y="-428" type="line"/>
      <point x="46" y="-292" type="line"/>
      <point x="108" y="0" type="line"/>
      <point x="1286" y="0" type="line"/>
      <point x="1196" y="-428" type="line"/>
      <point x="1332" y="-292" type="line"/>
      <point x="1418" y="108" type="line"/>
      <point x="206" y="108" type="line"/>
      <point x="142" y="64" type="line"/>
      <point x="22" y="98" type="line"/>
    </contour>
  </outline>
</glyph>
<glyph name="Zhe-cy" format="2">
  <advance width="1910"/>
  <unicode hex="0416"/>
  <anchor x="1630" y="0" name="descender"/>
  <anchor x="1150" y="1400" name="top"/>
  <outline>
    <contour>
      <point x="1586" y="0" type="line"/>
      <point x="1730" y="0" type="line"/>
      <point x="1354" y="748" type="line"/>
      <point x="1950" y="1400" type="line"/>
      <point x="1804" y="1400" type="line"/>
      <point x="1214" y="754" type="line"/>
    </contour>
    <contour>
      <point x="-24" y="0" type="line"/>
      <point x="128" y="0" type="line"/>
      <point x="808" y="752" type="line"/>
      <point x="488" y="1400" type="line"/>
      <point x="352" y="1400" type="line"/>
      <point x="668" y="756" type="line"/>
    </contour>
    <contour>
      <point x="796" y="0" type="line"/>
      <point x="912" y="0" type="line"/>
      <point x="1058" y="698" type="line"/>
      <point x="1288" y="698" type="line"/>
      <point x="1312" y="806" type="line"/>
      <point x="1082" y="806" type="line"/>
      <point x="1208" y="1400" type="line"/>
      <point x="1092" y="1400" type="line"/>
      <point x="966" y="806" type="line"/>
      <point x="738" y="806" type="line"/>
      <point x="714" y="698" type="line"/>
      <point x="942" y="698" type="line"/>
    </contour>
  </outline>
</glyph>
<glyph name="Ze-cy" format="2">
  <advance width="1167"/>
  <unicode hex="0417"/>
  <guideline x="124" y="608" angle="78.0239"/>
  <guideline x="8" y="127" angle="78.0239"/>
  <anchor x="463" y="0" name="bottom"/>
  <anchor x="697" y="1400" name="top"/>
  <outline>
    <contour>
      <point x="483" y="-30" type="curve" smooth="yes"/>
      <point x="771" y="-30"/>
      <point x="1023" y="152"/>
      <point x="1023" y="416" type="curve" smooth="yes"/>
      <point x="1023" y="554"/>
      <point x="947" y="680"/>
      <point x="801" y="728" type="curve"/>
      <point x="983" y="766"/>
      <point x="1127" y="916"/>
      <point x="1127" y="1082" type="curve" smooth="yes"/>
      <point x="1127" y="1308"/>
      <point x="931" y="1430"/>
      <point x="683" y="1430" type="curve" smooth="yes"/>
      <point x="551" y="1430"/>
      <point x="411" y="1400"/>
      <point x="309" y="1344" type="curve"/>
      <point x="281" y="1216" type="line"/>
      <point x="387" y="1282"/>
      <point x="529" y="1318"/>
      <point x="667" y="1318" type="curve" smooth="yes"/>
      <point x="843" y="1318"/>
      <point x="1009" y="1252"/>
      <point x="1009" y="1080" type="curve" smooth="yes"/>
      <point x="1009" y="892"/>
      <point x="813" y="778"/>
      <point x="585" y="778" type="curve" smooth="yes"/>
      <point x="329" y="778" type="line"/>
      <point x="283" y="670" type="line"/>
      <point x="599" y="670" type="line" smooth="yes"/>
      <point x="793" y="670"/>
      <point x="909" y="584"/>
      <point x="909" y="420" type="curve" smooth="yes"/>
      <point x="909" y="216"/>
      <point x="725" y="82"/>
      <point x="499" y="82" type="curve" smooth="yes"/>
      <point x="321" y="82"/>
      <point x="155" y="132"/>
      <point x="51" y="254" type="curve"/>
      <point x="23" y="124" type="line"/>
      <point x="141" y="18"/>
      <point x="313" y="-30"/>
    </contour>
  </outline>
</glyph>
<glyph name="U-cy" format="2">
  <advance width="1194"/>
  <unicode hex="0423"/>
  <anchor x="844" y="1400" name="top"/>
  <outline>
    <contour>
      <point x="6" y="0" type="line"/>
      <point x="260" y="-44"/>
      <point x="416" y="72"/>
      <point x="716" y="494" type="curve" smooth="yes"/>
      <point x="1360" y="1400" type="line"/>
      <point x="1214" y="1400" type="line"/>
      <point x="638" y="568" type="line" smooth="yes"/>
      <point x="380" y="200"/>
      <point x="214" y="74"/>
      <point x="28" y="108" type="curve"/>
    </contour>
    <contour>
      <point x="616" y="480" type="line"/>
      <point x="698" y="606" type="line"/>
      <point x="418" y="1400" type="line"/>
      <point x="274" y="1400" type="line"/>
    </contour>
  </outline>
</glyph>
<glyph name="Ef-cy" format="2">
  <advance width="1647"/>
  <unicode hex="0424"/>
  <outline>
    <contour>
      <point x="658" y="-56" type="line"/>
      <point x="766" y="-56" type="line"/>
      <point x="804" y="124" type="line"/>
      <point x="1279" y="111"/>
      <point x="1592" y="387"/>
      <point x="1592" y="764" type="curve" smooth="yes"/>
      <point x="1592" y="1064"/>
      <point x="1369" y="1256"/>
      <point x="1048" y="1287" type="curve"/>
      <point x="1086" y="1470" type="line"/>
      <point x="978" y="1470" type="line"/>
      <point x="940" y="1290" type="line"/>
      <point x="465" y="1303"/>
      <point x="152" y="1027"/>
      <point x="152" y="650" type="curve" smooth="yes"/>
      <point x="152" y="350"/>
      <point x="375" y="158"/>
      <point x="696" y="127" type="curve"/>
    </contour>
    <contour>
      <point x="719" y="234" type="line"/>
      <point x="455" y="260"/>
      <point x="274" y="408"/>
      <point x="274" y="654" type="curve" smooth="yes"/>
      <point x="274" y="973"/>
      <point x="517" y="1195"/>
      <point x="918" y="1182" type="curve"/>
    </contour>
    <contour>
      <point x="826" y="232" type="curve"/>
      <point x="1025" y="1180" type="line"/>
      <point x="1289" y="1154"/>
      <point x="1470" y="1006"/>
      <point x="1470" y="760" type="curve" smooth="yes"/>
      <point x="1470" y="441"/>
      <point x="1227" y="219"/>
    </contour>
  </outline>
</glyph>
<glyph name="Che-cy" format="2">
  <advance width="1328"/>
  <unicode hex="0427"/>
  <anchor x="672" y="634" name="center"/>
  <anchor x="1026" y="0" name="descender"/>
  <anchor x="910" y="0" name="descender_alt"/>
  <anchor x="834" y="1400" name="top"/>
  <outline>
    <contour>
      <point x="910" y="0" type="line"/>
      <point x="1026" y="0" type="line"/>
      <point x="1322" y="1400" type="line"/>
      <point x="1206" y="1400" type="line"/>
      <point x="1062" y="720" type="line"/>
      <point x="946" y="690"/>
      <point x="832" y="672"/>
      <point x="684" y="672" type="curve" smooth="yes"/>
      <point x="422" y="672"/>
      <point x="304" y="782"/>
      <point x="364" y="1082" type="curve" smooth="yes"/>
      <point x="432" y="1400" type="line"/>
      <point x="316" y="1400" type="line"/>
      <point x="244" y="1062" type="line" smooth="yes"/>
      <point x="172" y="706"/>
      <point x="320" y="554"/>
      <point x="660" y="554" type="curve" smooth="yes"/>
      <point x="798" y="554"/>
      <point x="916" y="574"/>
      <point x="1038" y="610" type="curve"/>
    </contour>
  </outline>
</glyph>
<glyph name="Sha-cy" format="2">
  <advance width="2124"/>
  <unicode hex="0428"/>
  <anchor x="1822" y="0" name="descender"/>
  <outline>
    <contour>
      <point x="100" y="0" type="line"/>
      <point x="1822" y="0" type="line"/>
      <point x="2118" y="1400" type="line"/>
      <point x="2002" y="1400" type="line"/>
      <point x="1728" y="108" type="line"/>
      <point x="1042" y="108" type="line"/>
      <point x="1316" y="1400" type="line"/>
      <point x="1200" y="1400" type="line"/>
      <point x="926" y="108" type="line"/>
      <point x="238" y="108" type="line"/>
      <point x="512" y="1400" type="line"/>
      <point x="396" y="1400" type="line"/>
    </contour>
  </outline>
</glyph>
<glyph name="Ereversed-cy" format="2">
  <advance width="1391"/>
  <unicode hex="042D"/>
  <guideline x="139" y="617" angle="78.1288"/>
  <guideline x="26" y="126" angle="78.1288"/>
  <anchor x="465" y="0" name="bottom"/>
  <anchor x="689" y="1400" name="top"/>
  <outline>
    <contour>
      <point x="517" y="-30" type="curve" smooth="yes"/>
      <point x="983" y="-30"/>
      <point x="1319" y="302"/>
      <point x="1319" y="774" type="curve" smooth="yes"/>
      <point x="1319" y="1150"/>
      <point x="1057" y="1430"/>
      <point x="665" y="1430" type="curve" smooth="yes"/>
      <point x="515" y="1430"/>
      <point x="407" y="1404"/>
      <point x="303" y="1356" type="curve"/>
      <point x="277" y="1234" type="line"/>
      <point x="385" y="1294"/>
      <point x="493" y="1320"/>
      <point x="647" y="1320" type="curve" smooth="yes"/>
      <point x="979" y="1320"/>
      <point x="1201" y="1102"/>
      <point x="1201" y="778" type="curve" smooth="yes"/>
      <point x="1201" y="376"/>
      <point x="939" y="82"/>
      <point x="531" y="82" type="curve" smooth="yes"/>
      <point x="369" y="82"/>
      <point x="181" y="134"/>
      <point x="51" y="252" type="curve"/>
      <point x="27" y="138" type="line"/>
      <point x="161" y="22"/>
      <point x="343" y="-30"/>
    </contour>
    <contour>
      <point x="327" y="688" type="line"/>
      <point x="1219" y="688" type="line"/>
      <point x="1241" y="796" type="line"/>
      <point x="373" y="796" type="line"/>
    </contour>
  </outline>
</glyph>
<glyph name="ve-cy" format="2">
  <advance width="1094"/>
  <unicode hex="0432"/>
  <outline>
    <contour>
      <point x="72" y="0" type="line"/>
      <point x="510" y="0" type="line" smooth="yes"/>
      <point x="768" y="0"/>
      <point x="928" y="126"/>
      <point x="928" y="298" type="curve" smooth="yes"/>
      <point x="928" y="408"/>
      <point x="856" y="482"/>
      <point x="722" y="512" type="curve"/>
      <point x="716" y="468" type="line"/>
      <point x="914" y="520"/>
      <point x="980" y="614"/>
      <point x="980" y="738" type="curve" smooth="yes"/>
      <point x="980" y="882"/>
      <point x="846" y="960"/>
      <point x="630" y="960" type="curve" smooth="yes"/>
      <point x="272" y="960" type="line"/>
    </contour>
    <contour>
      <point x="204" y="104" type="line"/>
      <point x="364" y="856" type="line"/>
      <point x="610" y="856" type="line" smooth="yes"/>
      <point x="776" y="856"/>
      <point x="868" y="820"/>
      <point x="868" y="720" type="curve" smooth="yes"/>
      <point x="868" y="598"/>
      <point x="764" y="544"/>
      <point x="600" y="544" type="curve" smooth="yes"/>
      <point x="270" y="544" type="line"/>
      <point x="250" y="440" type="line"/>
      <point x="558" y="440" type="line" smooth="yes"/>
      <point x="730" y="440"/>
      <point x="816" y="388"/>
      <point x="816" y="288" type="curve" smooth="yes"/>
      <point x="816" y="164"/>
      <point x="710" y="104"/>
      <point x="504" y="104" type="curve" smooth="yes"/>
    </contour>
  </outline>
</glyph>
<glyph name="de-cy" format="2">
  <advance width="1282"/>
  <unicode hex="0434"/>
  <guideline x="310" y="566" angle="258.0917"/>
  <outline>
    <contour>
      <point x="818" y="0" type="line"/>
      <point x="930" y="0" type="line"/>
      <point x="1134" y="960" type="line"/>
      <point x="393" y="960" type="line"/>
      <point x="248" y="272" type="line" smooth="yes"/>
      <point x="217" y="123"/>
      <point x="120" y="86"/>
      <point x="0" y="98" type="curve"/>
      <point x="-16" y="20" type="line"/>
      <point x="154" y="4"/>
      <point x="316" y="56"/>
      <point x="354" y="240" type="curve" smooth="yes"/>
      <point x="484" y="856" type="line"/>
      <point x="1000" y="856" type="line"/>
    </contour>
    <contour>
      <point x="-98" y="-364" type="line"/>
      <point x="32" y="-236" type="line"/>
      <point x="82" y="0" type="line"/>
      <point x="1022" y="0" type="line"/>
      <point x="946" y="-364" type="line"/>
      <point x="1076" y="-236" type="line"/>
      <point x="1148" y="104" type="line"/>
      <point x="118" y="104" type="line"/>
      <point x="98" y="84" type="line"/>
      <point x="0" y="98" type="line"/>
    </contour>
  </outline>
</glyph>
<glyph name="zhe-cy" format="2">
  <advance width="1466"/>
  <unicode hex="0436"/>
  <anchor x="1224" y="0" name="descender"/>
  <anchor x="832" y="960" name="top"/>
  <outline>
    <contour>
      <point x="576" y="0" type="line"/>
      <point x="688" y="0" type="line"/>
      <point x="782" y="460" type="line"/>
      <point x="1040" y="460" type="line"/>
      <point x="1064" y="564" type="line"/>
      <point x="806" y="564" type="line"/>
      <point x="896" y="1000" type="line"/>
      <point x="754" y="858" type="line"/>
      <point x="694" y="564" type="line"/>
      <point x="438" y="564" type="line"/>
      <point x="414" y="460" type="line"/>
      <point x="670" y="460" type="line"/>
    </contour>
    <contour>
      <point x="-42" y="0" type="line"/>
      <point x="96" y="0" type="line"/>
      <point x="510" y="516" type="line"/>
      <point x="340" y="960" type="line"/>
      <point x="220" y="960" type="line"/>
      <point x="388" y="522" type="line"/>
    </contour>
    <contour>
      <point x="1170" y="0" type="line"/>
      <point x="1304" y="0" type="line"/>
      <point x="1092" y="512" type="line"/>
      <point x="1444" y="960" type="line"/>
      <point x="1318" y="960" type="line"/>
      <point x="972" y="516" type="line"/>
    </contour>
  </outline>
</glyph>
<glyph name="ze-cy" format="2">
  <advance width="988"/>
  <unicode hex="0437"/>
  <anchor x="372" y="0" name="bottom"/>
  <anchor x="564" y="960" name="top"/>
  <outline>
    <contour>
      <point x="416" y="-20" type="curve" smooth="yes"/>
      <point x="650" y="-20"/>
      <point x="850" y="86"/>
      <point x="850" y="284" type="curve" smooth="yes"/>
      <point x="850" y="382"/>
      <point x="784" y="458"/>
      <point x="660" y="498" type="curve"/>
      <point x="814" y="518"/>
      <point x="908" y="626"/>
      <point x="908" y="738" type="curve" smooth="yes"/>
      <point x="908" y="918"/>
      <point x="716" y="990"/>
      <point x="524" y="990" type="curve" smooth="yes"/>
      <point x="410" y="990"/>
      <point x="298" y="968"/>
      <point x="214" y="924" type="curve"/>
      <point x="190" y="806" type="line"/>
      <point x="286" y="862"/>
      <point x="400" y="886"/>
      <point x="524" y="886" type="curve" smooth="yes"/>
      <point x="654" y="886"/>
      <point x="794" y="846"/>
      <point x="794" y="730" type="curve" smooth="yes"/>
      <point x="794" y="588"/>
      <point x="658" y="562"/>
      <point x="430" y="562" type="curve" smooth="yes"/>
      <point x="266" y="562" type="line"/>
      <point x="220" y="458" type="line"/>
      <point x="410" y="458" type="line" smooth="yes"/>
      <point x="622" y="458"/>
      <point x="738" y="402"/>
      <point x="738" y="278" type="curve" smooth="yes"/>
      <point x="738" y="148"/>
      <point x="610" y="84"/>
      <point x="436" y="84" type="curve" smooth="yes"/>
      <point x="298" y="84"/>
      <point x="160" y="118"/>
      <point x="66" y="202" type="curve"/>
      <point x="42" y="86" type="line"/>
      <point x="142" y="12"/>
      <point x="280" y="-20"/>
    </contour>
  </outline>
</glyph>
<glyph name="el-cy" format="2">
  <advance width="1164"/>
  <unicode hex="043B"/>
  <guideline x="341" y="428" angle="180"/>
  <guideline x="289" y="559" angle="258.1017"/>
  <outline>
    <contour>
      <point x="-46" y="-20" type="line"/>
      <point x="126" y="-40"/>
      <point x="288" y="22"/>
      <point x="334" y="240" type="curve" smooth="yes"/>
      <point x="464" y="856" type="line"/>
      <point x="960" y="856" type="line"/>
      <point x="780" y="0" type="line"/>
      <point x="892" y="0" type="line"/>
      <point x="1096" y="960" type="line"/>
      <point x="373" y="960" type="line"/>
      <point x="226" y="260" type="line" smooth="yes"/>
      <point x="194" y="110"/>
      <point x="98" y="72"/>
      <point x="-24" y="84" type="curve"/>
    </contour>
  </outline>
</glyph>
<glyph name="che-cy" format="2">
  <advance width="1057"/>
  <unicode hex="0447"/>
  <anchor x="489" y="450" name="center"/>
  <anchor x="785" y="0" name="descender"/>
  <anchor x="673" y="0" name="descender_alt"/>
  <anchor x="597" y="960" name="top"/>
  <outline>
    <contour>
      <point x="673" y="0" type="line"/>
      <point x="785" y="0" type="line"/>
      <point x="997" y="1000" type="line"/>
      <point x="855" y="858" type="line"/>
      <point x="783" y="518" type="line"/>
      <point x="687" y="496"/>
      <point x="607" y="488"/>
      <point x="515" y="488" type="curve" smooth="yes"/>
      <point x="313" y="488"/>
      <point x="229" y="560"/>
      <point x="267" y="740" type="curve" smooth="yes"/>
      <point x="323" y="1000" type="line"/>
      <point x="181" y="858" type="line"/>
      <point x="153" y="722" type="line" smooth="yes"/>
      <point x="103" y="478"/>
      <point x="225" y="380"/>
      <point x="489" y="380" type="curve" smooth="yes"/>
      <point x="591" y="380"/>
      <point x="677" y="396"/>
      <point x="763" y="420" type="curve"/>
    </contour>
  </outline>
</glyph>
<glyph name="ereversed-cy" format="2">
  <advance width="986"/>
  <unicode hex="044D"/>
  <guideline x="2" y="101" angle="78.0239"/>
  <guideline x="77" y="408" angle="78.0239"/>
  <anchor x="308" y="0" name="bottom"/>
  <anchor x="508" y="960" name="top"/>
  <outline>
    <contour>
      <point x="366" y="-30" type="curve" smooth="yes"/>
      <point x="684" y="-30"/>
      <point x="906" y="240"/>
      <point x="906" y="548" type="curve" smooth="yes"/>
      <point x="906" y="822"/>
      <point x="730" y="990"/>
      <point x="472" y="990" type="curve" smooth="yes"/>
      <point x="374" y="990"/>
      <point x="264" y="962"/>
      <point x="184" y="922" type="curve"/>
      <point x="160" y="806" type="line"/>
      <point x="240" y="852"/>
      <point x="344" y="884"/>
      <point x="450" y="884" type="curve" smooth="yes"/>
      <point x="662" y="884"/>
      <point x="788" y="760"/>
      <point x="788" y="546" type="curve" smooth="yes"/>
      <point x="788" y="304"/>
      <point x="634" y="78"/>
      <point x="378" y="78" type="curve" smooth="yes"/>
      <point x="252" y="78"/>
      <point x="116" y="122"/>
      <point x="34" y="198" type="curve"/>
      <point x="8" y="78" type="line"/>
      <point x="102" y="6"/>
      <point x="244" y="-30"/>
    </contour>
    <contour>
      <point x="160" y="440" type="line"/>
      <point x="792" y="440" type="line"/>
      <point x="814" y="544" type="line"/>
      <point x="206" y="544" type="line"/>
    </contour>
  </outline>
</glyph>
<glyph name="e-cy" format="2">
  <advance width="1004"/>
  <unicode hex="0454"/>
  <guideline x="449" y="396" angle="78.0239"/>
  <guideline x="401" y="79" angle="78.0239"/>
  <outline>
    <contour>
      <point x="570" y="-30" type="curve" smooth="yes"/>
      <point x="656" y="-30"/>
      <point x="738" y="-10"/>
      <point x="818" y="28" type="curve"/>
      <point x="846" y="162" type="line"/>
      <point x="788" y="114"/>
      <point x="692" y="78"/>
      <point x="584" y="78" type="curve" smooth="yes"/>
      <point x="372" y="78"/>
      <point x="204" y="208"/>
      <point x="204" y="442" type="curve" smooth="yes"/>
      <point x="204" y="686"/>
      <point x="376" y="882"/>
      <point x="646" y="882" type="curve" smooth="yes"/>
      <point x="746" y="882"/>
      <point x="870" y="856"/>
      <point x="940" y="794" type="curve"/>
      <point x="966" y="912" type="line"/>
      <point x="884" y="966"/>
      <point x="788" y="990"/>
      <point x="678" y="990" type="curve" smooth="yes"/>
      <point x="348" y="990"/>
      <point x="84" y="758"/>
      <point x="84" y="442" type="curve" smooth="yes"/>
      <point x="84" y="162"/>
      <point x="290" y="-30"/>
    </contour>
    <contour>
      <point x="174" y="440" type="line"/>
      <point x="808" y="440" type="line"/>
      <point x="830" y="544" type="line"/>
      <point x="196" y="544" type="line"/>
    </contour>
  </outline>
</glyph>
<glyph name="lje-cy" format="2">
  <advance width="1692"/>
  <unicode hex="0459"/>
  <guideline x="299" y="559" angle="78.1017"/>
  <outline>
    <contour>
      <point x="-36" y="-20" type="line"/>
      <point x="136" y="-40"/>
      <point x="298" y="22"/>
      <point x="344" y="240" type="curve" smooth="yes"/>
      <point x="474" y="856" type="line"/>
      <point x="930" y="856" type="line"/>
      <point x="1066" y="960" type="line"/>
      <point x="384" y="960" type="line"/>
      <point x="236" y="260" type="line" smooth="yes"/>
      <point x="204" y="110"/>
      <point x="108" y="72"/>
      <point x="-14" y="84" type="curve"/>
    </contour>
    <contour>
      <point x="750" y="0" type="line"/>
      <point x="1170" y="0" type="line" smooth="yes"/>
      <point x="1388" y="0"/>
      <point x="1562" y="126"/>
      <point x="1562" y="324" type="curve" smooth="yes"/>
      <point x="1562" y="514"/>
      <point x="1438" y="616"/>
      <point x="1224" y="616" type="curve" smooth="yes"/>
      <point x="966" y="616" type="line"/>
      <point x="942" y="512" type="line"/>
      <point x="1212" y="512" type="line" smooth="yes"/>
      <point x="1372" y="512"/>
      <point x="1442" y="450"/>
      <point x="1442" y="324" type="curve" smooth="yes"/>
      <point x="1442" y="190"/>
      <point x="1340" y="106"/>
      <point x="1176" y="106" type="curve" smooth="yes"/>
      <point x="884" y="106" type="line"/>
      <point x="1066" y="960" type="line"/>
      <point x="954" y="960" type="line"/>
    </contour>
  </outline>
</glyph>
<glyph name="Yat-cy" format="2">
  <advance width="1419"/>
  <unicode hex="0462"/>
  <guideline x="178" y="1090" angle="65.556"/>
  <outline>
    <contour>
      <point x="300" y="0" type="line"/>
      <point x="802" y="0" type="line" smooth="yes"/>
      <point x="1108" y="0"/>
      <point x="1308" y="180"/>
      <point x="1310" y="434" type="curve" smooth="yes"/>
      <point x="1312" y="656"/>
      <point x="1144" y="796"/>
      <point x="866" y="796" type="curve" smooth="yes"/>
      <point x="556" y="796" type="line"/>
      <point x="534" y="688" type="line"/>
      <point x="852" y="688" type="line" smooth="yes"/>
      <point x="1088" y="688"/>
      <point x="1198" y="596"/>
      <point x="1196" y="420" type="curve" smooth="yes"/>
      <point x="1194" y="216"/>
      <point x="1052" y="108"/>
      <point x="806" y="108" type="curve" smooth="yes"/>
      <point x="438" y="108" type="line"/>
      <point x="722" y="1440" type="line"/>
      <point x="604" y="1440" type="line"/>
    </contour>
    <contour>
      <point x="158" y="1046" type="line"/>
      <point x="992" y="1046" type="line"/>
      <point x="1012" y="1134" type="line"/>
      <point x="198" y="1134" type="line"/>
    </contour>
  </outline>
</glyph>
<glyph name="gheupturn-cy" format="2">
  <advance width="831"/>
  <unicode hex="0491"/>
  <anchor x="344" y="486" name="bar"/>
  <anchor x="180" y="0" name="descender"/>
  <anchor x="574" y="960" name="top"/>
  <outline>
    <contour>
      <point x="748" y="856" type="line"/>
      <point x="852" y="856" type="line"/>
      <point x="952" y="1324" type="line"/>
      <point x="820" y="1196" type="line"/>
    </contour>
    <component base="ge-cy"/>
  </outline>
</glyph>
<glyph name="chekhakassian-cy" format="2">
  <advance width="1057"/>
  <unicode hex="04CC"/>
  <anchor x="674" y="0" name="_descender"/>
  <anchor x="489" y="450" name="center"/>
  <anchor x="785" y="0" name="descender"/>
  <anchor x="673" y="0" name="descender_alt"/>
  <anchor x="597" y="960" name="top"/>
  <outline>
    <contour>
      <point x="360" y="-364" type="line"/>
      <point x="492" y="-236" type="line"/>
      <point x="542" y="0" type="line"/>
      <point x="754" y="0" type="line"/>
      <point x="776" y="104" type="line"/>
      <point x="460" y="104" type="line"/>
    </contour>
    <component base="che-cy"/>
  </outline>
</glyph>
<glyph name="endash" format="2">
  <advance width="1082"/>
  <unicode hex="2013"/>
  <outline>
    <contour>
      <point x="88" y="514" type="line"/>
      <point x="1008" y="514" type="line"/>
      <point x="1028" y="606" type="line"/>
      <point x="108" y="606" type="line"/>
    </contour>
  </outline>
</glyph>
<glyph name="quoteleft" format="2">
  <advance width="503"/>
  <unicode hex="2018"/>
  <outline>
    <contour>
      <point x="383" y="996" type="curve" smooth="yes"/>
      <point x="445" y="996"/>
      <point x="497" y="1046"/>
      <point x="497" y="1112" type="curve" smooth="yes"/>
      <point x="497" y="1164"/>
      <point x="459" y="1200"/>
      <point x="401" y="1198" type="curve"/>
      <point x="417" y="1252"/>
      <point x="515" y="1312"/>
      <point x="603" y="1354" type="curve"/>
      <point x="557" y="1420" type="line"/>
      <point x="383" y="1332"/>
      <point x="281" y="1224"/>
      <point x="281" y="1104" type="curve" smooth="yes"/>
      <point x="281" y="1040"/>
      <point x="319" y="996"/>
    </contour>
  </outline>
</glyph>
<glyph name="quoteright" format="2">
  <advance width="504"/>
  <unicode hex="2019"/>
  <outline>
    <contour>
      <point x="256" y="996" type="line"/>
      <point x="430" y="1084"/>
      <point x="532" y="1192"/>
      <point x="532" y="1312" type="curve" smooth="yes"/>
      <point x="532" y="1376"/>
      <point x="494" y="1420"/>
      <point x="430" y="1420" type="curve" smooth="yes"/>
      <point x="368" y="1420"/>
      <point x="316" y="1370"/>
      <point x="316" y="1304" type="curve" smooth="yes"/>
      <point x="316" y="1252"/>
      <point x="354" y="1216"/>
      <point x="412" y="1218" type="curve"/>
      <point x="396" y="1164"/>
      <point x="298" y="1104"/>
      <point x="210" y="1062" type="curve"/>
    </contour>
  </outline>
</glyph>
<glyph name="dagger" format="2">
  <advance width="1207"/>
  <unicode hex="2020"/>
  <outline>
    <contour>
      <point x="406" y="-212" type="line"/>
      <point x="506" y="-212" type="line"/>
      <point x="736" y="866" type="line"/>
      <point x="1154" y="866" type="line"/>
      <point x="1174" y="964" type="line"/>
      <point x="756" y="964" type="line"/>
      <point x="850" y="1400" type="line"/>
      <point x="750" y="1400" type="line"/>
      <point x="656" y="964" type="line"/>
      <point x="238" y="964" type="line"/>
      <point x="218" y="866" type="line"/>
      <point x="636" y="866" type="line"/>
    </contour>
  </outline>
</glyph>
<glyph name="daggerdbl" format="2">
  <advance width="1208"/>
  <unicode hex="2021"/>
  <outline>
    <contour>
      <point x="406" y="-212" type="line"/>
      <point x="506" y="-212" type="line"/>
      <point x="596" y="204" type="line"/>
      <point x="1014" y="204" type="line"/>
      <point x="1034" y="302" type="line"/>
      <point x="616" y="302" type="line"/>
      <point x="740" y="886" type="line"/>
      <point x="1158" y="886" type="line"/>
      <point x="1178" y="984" type="line"/>
      <point x="760" y="984" type="line"/>
      <point x="850" y="1400" type="line"/>
      <point x="750" y="1400" type="line"/>
      <point x="660" y="984" type="line"/>
      <point x="242" y="984" type="line"/>
      <point x="222" y="886" type="line"/>
      <point x="640" y="886" type="line"/>
      <point x="516" y="302" type="line"/>
      <point x="98" y="302" type="line"/>
      <point x="78" y="204" type="line"/>
      <point x="496" y="204" type="line"/>
    </contour>
  </outline>
</glyph>
<glyph name="perthousand" format="2">
  <advance width="2970"/>
  <unicode hex="2030"/>
  <outline>
    <contour>
      <point x="560" y="-30" type="line"/>
      <point x="1644" y="1382" type="line"/>
      <point x="1582" y="1430" type="line"/>
      <point x="494" y="20" type="line"/>
    </contour>
    <contour>
      <point x="552" y="710" type="curve" smooth="yes"/>
      <point x="762" y="710"/>
      <point x="958" y="886"/>
      <point x="958" y="1102" type="curve" smooth="yes"/>
      <point x="958" y="1278"/>
      <point x="822" y="1420"/>
      <point x="632" y="1420" type="curve" smooth="yes"/>
      <point x="420" y="1420"/>
      <point x="224" y="1244"/>
      <point x="224" y="1030" type="curve" smooth="yes"/>
      <point x="224" y="852"/>
      <point x="362" y="710"/>
    </contour>
    <contour>
      <point x="568" y="806" type="curve" smooth="yes"/>
      <point x="418" y="806"/>
      <point x="324" y="898"/>
      <point x="324" y="1034" type="curve" smooth="yes"/>
      <point x="324" y="1202"/>
      <point x="450" y="1324"/>
      <point x="614" y="1324" type="curve" smooth="yes"/>
      <point x="764" y="1324"/>
      <point x="858" y="1236"/>
      <point x="858" y="1102" type="curve" smooth="yes"/>
      <point x="858" y="940"/>
      <point x="742" y="806"/>
    </contour>
    <contour>
      <point x="1508" y="-20" type="curve" smooth="yes"/>
      <point x="1718" y="-20"/>
      <point x="1914" y="156"/>
      <point x="1914" y="372" type="curve" smooth="yes"/>
      <point x="1914" y="548"/>
      <point x="1778" y="690"/>
      <point x="1588" y="690" type="curve" smooth="yes"/>
      <point x="1376" y="690"/>
      <point x="1180" y="514"/>
      <point x="1180" y="300" type="curve" smooth="yes"/>
      <point x="1180" y="122"/>
      <point x="1318" y="-20"/>
    </contour>
    <contour>
      <point x="1526" y="76" type="curve" smooth="yes"/>
      <point x="1376" y="76"/>
      <point x="1280" y="170"/>
      <point x="1280" y="304" type="curve" smooth="yes"/>
      <point x="1280" y="462"/>
      <point x="1402" y="594"/>
      <point x="1572" y="594" type="curve" smooth="yes"/>
      <point x="1722" y="594"/>
      <point x="1814" y="508"/>
      <point x="1814" y="374" type="curve" smooth="yes"/>
      <point x="1814" y="204"/>
      <point x="1694" y="76"/>
    </contour>
    <contour>
      <point x="2434" y="-20" type="curve" smooth="yes"/>
      <point x="2644" y="-20"/>
      <point x="2840" y="156"/>
      <point x="2840" y="372" type="curve" smooth="yes"/>
      <point x="2840" y="548"/>
      <point x="2704" y="690"/>
      <point x="2514" y="690" type="curve" smooth="yes"/>
      <point x="2302" y="690"/>
      <point x="2106" y="514"/>
      <point x="2106" y="300" type="curve" smooth="yes"/>
      <point x="2106" y="122"/>
      <point x="2244" y="-20"/>
    </contour>
    <contour>
      <point x="2452" y="76" type="curve" smooth="yes"/>
      <point x="2302" y="76"/>
      <point x="2206" y="170"/>
      <point x="2206" y="304" type="curve" smooth="yes"/>
      <point x="2206" y="462"/>
      <point x="2328" y="594"/>
      <point x="2498" y="594" type="curve" smooth="yes"/>
      <point x="2648" y="594"/>
      <point x="2740" y="508"/>
      <point x="2740" y="374" type="curve" smooth="yes"/>
      <point x="2740" y="204"/>
      <point x="2620" y="76"/>
    </contour>
  </outline>
</glyph>
<glyph name="fraction" format="2">
  <advance width="386"/>
  <unicode hex="2044"/>
  <guideline x="-134" y="-15" angle="322.3219"/>
  <guideline x="377" y="715" angle="322.3219"/>
  <outline>
    <contour>
      <point x="-245" y="0" type="line"/>
      <point x="830" y="1400" type="line"/>
      <point x="731" y="1400" type="line"/>
      <point x="-350" y="0" type="line"/>
    </contour>
  </outline>
</glyph>
<glyph name="divisionslash" format="2">
  <advance width="1298"/>
  <unicode hex="2215"/>
  <guideline x="602" y="715" angle="322.3219"/>
  <guideline x="91" y="-15" angle="322.3219"/>
  <outline>
    <contour>
      <point x="211" y="0" type="line"/>
      <point x="1286" y="1400" type="line"/>
      <point x="1187" y="1400" type="line"/>
      <point x="106" y="0" type="line"/>
    </contour>
  </outline>
</glyph>
<glyph name="notequal" format="2">
  <advance width="1298"/>
  <unicode hex="2260"/>
  <guideline x="211" y="67" angle="324.2371"/>
  <guideline x="481" y="599" angle="324.2371"/>
  <outline>
    <contour>
      <point x="398" y="179" type="line"/>
      <point x="1099" y="1153" type="line"/>
      <point x="986" y="1153" type="line"/>
      <point x="285" y="179" type="line"/>
    </contour>
    <contour>
      <point x="246" y="780" type="line"/>
      <point x="1182" y="780" type="line"/>
      <point x="1202" y="876" type="line"/>
      <point x="266" y="876" type="line"/>
    </contour>
    <contour>
      <point x="174" y="452" type="line"/>
      <point x="1110" y="452" type="line"/>
      <point x="1130" y="548" type="line"/>
      <point x="194" y="548" type="line"/>
    </contour>
  </outline>
</glyph>
<glyph name="rightanglebracket-math" format="2">
  <advance width="1296"/>
  <unicode hex="27E9"/>
  <outline>
    <contour>
      <point x="74" y="-440" type="line"/>
      <point x="1082" y="664" type="line"/>
      <point x="546" y="1768" type="line"/>
      <point x="510" y="1610" type="line"/>
      <point x="970" y="664" type="line"/>
      <point x="110" y="-282" type="line"/>
    </contour>
  </outline>
</glyph>
<glyph name="De-cy.loclBGR" format="2">
  <advance width="1579"/>
  <outline>
    <contour>
      <point x="68" y="0" type="line"/>
      <point x="200" y="0" type="line"/>
      <point x="940" y="1226" type="line"/>
      <point x="1194" y="0" type="line"/>
      <point x="1320" y="0" type="line"/>
      <point x="1026" y="1400" type="line"/>
      <point x="926" y="1400" type="line"/>
    </contour>
    <contour>
      <point x="-128" y="-428" type="line"/>
      <point x="8" y="-292" type="line"/>
      <point x="70" y="0" type="line"/>
      <point x="1306" y="0" type="line"/>
      <point x="1216" y="-428" type="line"/>
      <point x="1352" y="-292" type="line"/>
      <point x="1436" y="108" type="line"/>
      <point x="-16" y="108" type="line"/>
    </contour>
  </outline>
</glyph>
<glyph name="_part.Kaverticalstroke-cy" format="2">
  <advance width="1318"/>
  <anchor x="574" y="752" name="center"/>
  <outline>
    <contour>
      <point x="982" y="0" type="line"/>
      <point x="1126" y="0" type="line"/>
      <point x="724" y="744" type="line"/>
      <point x="1332" y="1400" type="line"/>
      <point x="1188" y="1400" type="line"/>
      <point x="584" y="752" type="line"/>
    </contour>
    <contour>
      <point x="100" y="0" type="line"/>
      <point x="216" y="0" type="line"/>
      <point x="364" y="698" type="line"/>
      <point x="650" y="698" type="line"/>
      <point x="672" y="806" type="line"/>
      <point x="386" y="806" type="line"/>
      <point x="512" y="1400" type="line"/>
      <point x="396" y="1400" type="line"/>
    </contour>
  </outline>
</glyph>
<glyph name="_part.cedi" format="2">
  <advance width="1298"/>
  <guideline x="617" y="589" angle="78.0239"/>
  <guideline x="556" y="98" angle="78.0239"/>
  <anchor x="656" y="0" name="bottom"/>
  <anchor x="880" y="1400" name="top"/>
  <outline>
    <contour>
      <point x="730" y="-30" type="curve" smooth="yes"/>
      <point x="864" y="-30"/>
      <point x="988" y="0"/>
      <point x="1104" y="68" type="curve"/>
      <point x="1132" y="196" type="line"/>
      <point x="1016" y="112"/>
      <point x="894" y="78"/>
      <point x="762" y="78" type="curve" smooth="yes"/>
      <point x="448" y="78"/>
      <point x="262" y="260"/>
      <point x="262" y="582" type="curve" smooth="yes"/>
      <point x="262" y="976"/>
      <point x="496" y="1324"/>
      <point x="882" y="1324" type="curve" smooth="yes"/>
      <point x="1044" y="1324"/>
      <point x="1170" y="1276"/>
      <point x="1254" y="1178" type="curve"/>
      <point x="1280" y="1302" type="line"/>
      <point x="1192" y="1380"/>
      <point x="1058" y="1430"/>
      <point x="884" y="1430" type="curve" smooth="yes"/>
      <point x="460" y="1430"/>
      <point x="142" y="1024"/>
      <point x="142" y="566" type="curve" smooth="yes"/>
      <point x="142" y="210"/>
      <point x="362" y="-30"/>
    </contour>
  </outline>
</glyph>
<glyph name="_part.currencyBarHorizontalDoubl" format="2">
  <advance width="1298"/>
  <anchor x="798" y="1400" name="_top"/>
  <outline>
    <contour>
      <point x="128" y="792" type="line"/>
      <point x="1304" y="792" type="line"/>
      <point x="1324" y="892" type="line"/>
      <point x="148" y="892" type="line"/>
    </contour>
    <contour>
      <point x="64" y="484" type="line"/>
      <point x="1240" y="484" type="line"/>
      <point x="1260" y="584" type="line"/>
      <point x="84" y="584" type="line"/>
    </contour>
  </outline>
</glyph>
<glyph name="_part.currencyVertDiagAdjusted" format="2">
  <advance width="1418"/>
  <guideline x="520" y="165" angle="0"/>
  <anchor x="1004" y="1400" name="_top"/>
  <outline>
    <contour>
      <point x="584" y="-160" type="line"/>
      <point x="678" y="-160" type="line"/>
      <point x="1342" y="1560" type="line"/>
      <point x="1244" y="1560" type="line"/>
    </contour>
    <contour>
      <point x="278" y="-160" type="line"/>
      <point x="376" y="-160" type="line"/>
      <point x="493" y="146" type="line"/>
      <point x="396" y="146" type="line"/>
    </contour>
    <contour>
      <point x="855" y="1334" type="line"/>
      <point x="952" y="1334" type="line"/>
      <point x="1039" y="1560" type="line"/>
      <point x="942" y="1560" type="line"/>
    </contour>
  </outline>
</glyph>
<glyph name="_part.cy-desc-uc-reversed-stem" format="2">
  <guideline x="-115" y="54" angle="45"/>
  <guideline x="-115" y="54" angle="0"/>
  <anchor x="-208" y="0" name="_descender"/>
  <outline>
    <contour>
      <point x="-406" y="-428" type="line"/>
      <point x="-270" y="-292" type="line"/>
      <point x="-208" y="0" type="line"/>
      <point x="-182" y="20" type="line"/>
      <point x="-152" y="194" type="line"/>
      <point x="-306" y="40" type="line"/>
    </contour>
  </outline>
</glyph>
<glyph name="_part.cy-desc-uc-stem" format="2">
  <anchor x="-146" y="0" name="_descender"/>
  <outline>
    <contour>
      <point x="-236" y="-428" type="line"/>
      <point x="-100" y="-292" type="line"/>
      <point x="-16" y="108" type="line"/>
      <point x="-164" y="108" type="line"/>
      <point x="-186" y="0" type="line"/>
      <point x="-146" y="0" type="line"/>
    </contour>
  </outline>
</glyph>
<glyph name="_part.cy-desc-uc" format="2">
  <anchor x="-258" y="0" name="_descender"/>
  <outline>
    <contour>
      <point x="-236" y="-428" type="line"/>
      <point x="-100" y="-292" type="line"/>
      <point x="-16" y="108" type="line"/>
      <point x="-284" y="108" type="line"/>
      <point x="-306" y="0" type="line"/>
      <point x="-146" y="0" type="line"/>
    </contour>
  </outline>
</glyph>
<glyph name="_part.cy-descender-uc-center" format="2">
  <anchor x="-110" y="0" name="_bottom"/>
  <outline>
    <contour>
      <point x="-254" y="-428" type="line"/>
      <point x="-118" y="-292" type="line"/>
      <point x="-50" y="28" type="line"/>
      <point x="-158" y="28" type="line"/>
    </contour>
  </outline>
</glyph>
<glyph name="_part.guarani" format="2">
  <advance width="1298"/>
  <guideline x="600" y="598" angle="78.0239"/>
  <anchor x="858" y="1400" name="top"/>
  <outline>
    <contour>
      <point x="724" y="-30" type="curve" smooth="yes"/>
      <point x="822" y="-30"/>
      <point x="966" y="-4"/>
      <point x="1062" y="48" type="curve"/>
      <point x="1196" y="684" type="line"/>
      <point x="1088" y="684" type="line"/>
      <point x="968" y="116" type="line"/>
      <point x="918" y="92"/>
      <point x="842" y="74"/>
      <point x="756" y="74" type="curve" smooth="yes"/>
      <point x="450" y="74"/>
      <point x="260" y="266"/>
      <point x="260" y="584" type="curve" smooth="yes"/>
      <point x="260" y="968"/>
      <point x="484" y="1322"/>
      <point x="860" y="1322" type="curve" smooth="yes"/>
      <point x="982" y="1322"/>
      <point x="1120" y="1280"/>
      <point x="1220" y="1196" type="curve"/>
      <point x="1244" y="1308" type="line"/>
      <point x="1152" y="1390"/>
      <point x="1016" y="1430"/>
      <point x="878" y="1430" type="curve" smooth="yes"/>
      <point x="446" y="1430"/>
      <point x="140" y="1032"/>
      <point x="140" y="580" type="curve" smooth="yes"/>
      <point x="140" y="222"/>
      <point x="374" y="-30"/>
    </contour>
  </outline>
</glyph>
<glyph name="_part.heng" format="2">
  <advance width="1106"/>
  <anchor x="496" y="1204" name="bar"/>
  <outline>
    <contour>
      <point x="432" y="-270" type="line"/>
      <point x="794" y="-174"/>
      <point x="1016" y="214"/>
      <point x="1016" y="576" type="curve" smooth="yes"/>
      <point x="1016" y="840"/>
      <point x="894" y="990"/>
      <point x="678" y="990" type="curve" smooth="yes"/>
      <point x="556" y="990"/>
      <point x="434" y="924"/>
      <point x="354" y="820" type="curve"/>
      <point x="496" y="1480" type="line"/>
      <point x="354" y="1338" type="line"/>
      <point x="68" y="0" type="line"/>
      <point x="180" y="0" type="line"/>
      <point x="302" y="570" type="line" smooth="yes"/>
      <point x="342" y="760"/>
      <point x="492" y="882"/>
      <point x="664" y="882" type="curve" smooth="yes"/>
      <point x="812" y="882"/>
      <point x="896" y="784"/>
      <point x="896" y="562" type="curve" smooth="yes"/>
      <point x="896" y="250"/>
      <point x="714" y="-70"/>
      <point x="398" y="-176" type="curve"/>
    </contour>
  </outline>
</glyph>
<glyph name="_part.hryvnia" format="2">
  <advance width="1296"/>
  <guideline x="468" y="85" angle="78.0239"/>
  <guideline x="182" y="617" angle="78.0239"/>
  <anchor x="798" y="1400" name="top"/>
  <outline>
    <contour>
      <point x="630" y="-30" type="curve" smooth="yes"/>
      <point x="752" y="-30"/>
      <point x="886" y="-4"/>
      <point x="986" y="44" type="curve"/>
      <point x="1014" y="170" type="line"/>
      <point x="902" y="112"/>
      <point x="770" y="78"/>
      <point x="636" y="78" type="curve" smooth="yes"/>
      <point x="458" y="78"/>
      <point x="294" y="152"/>
      <point x="294" y="320" type="curve" smooth="yes"/>
      <point x="294" y="506"/>
      <point x="464" y="568"/>
      <point x="624" y="638" type="curve" smooth="yes"/>
      <point x="738" y="688" type="line" smooth="yes"/>
      <point x="938" y="776"/>
      <point x="1144" y="864"/>
      <point x="1144" y="1092" type="curve" smooth="yes"/>
      <point x="1144" y="1314"/>
      <point x="932" y="1428"/>
      <point x="690" y="1428" type="curve" smooth="yes"/>
      <point x="578" y="1428"/>
      <point x="470" y="1402"/>
      <point x="384" y="1358" type="curve"/>
      <point x="356" y="1234" type="line"/>
      <point x="452" y="1292"/>
      <point x="572" y="1324"/>
      <point x="690" y="1324" type="curve" smooth="yes"/>
      <point x="874" y="1324"/>
      <point x="1036" y="1236"/>
      <point x="1036" y="1078" type="curve" smooth="yes"/>
      <point x="1036" y="896"/>
      <point x="870" y="848"/>
      <point x="702" y="776" type="curve" smooth="yes"/>
      <point x="572" y="720" type="line" smooth="yes"/>
      <point x="382" y="638"/>
      <point x="184" y="546"/>
      <point x="184" y="310" type="curve" smooth="yes"/>
      <point x="184" y="82"/>
      <point x="384" y="-30"/>
    </contour>
  </outline>
</glyph>
<glyph name="_part.verticalstroke.case" format="2">
  <advance width="1200"/>
  <anchor x="510" y="780" name="_center"/>
  <outline>
    <contour>
      <point x="392" y="460" type="line"/>
      <point x="492" y="460" type="line"/>
      <point x="628" y="1100" type="line"/>
      <point x="528" y="1100" type="line"/>
    </contour>
  </outline>
</glyph>
<glyph name="_part.won" format="2">
  <advance width="1298"/>
  <anchor x="844" y="1400" name="top"/>
  <outline>
    <contour>
      <point x="226" y="0" type="line"/>
      <point x="360" y="0" type="line"/>
      <point x="808" y="1218" type="line"/>
      <point x="736" y="0" type="line"/>
      <point x="868" y="0" type="line"/>
      <point x="1412" y="1400" type="line"/>
      <point x="1292" y="1400" type="line"/>
      <point x="846" y="212" type="line"/>
      <point x="916" y="1400" type="line"/>
      <point x="774" y="1400" type="line"/>
      <point x="336" y="204" type="line"/>
      <point x="396" y="1400" type="line"/>
      <point x="278" y="1400" type="line"/>
    </contour>
  </outline>
</glyph>
<glyph name="acutecomb.case" format="2">
  <anchor x="-782" y="1398" name="_top"/>
  <outline>
    <contour>
      <point x="-806" y="1592" type="line"/>
      <point x="-694" y="1592" type="line"/>
      <point x="-430" y="1904" type="line"/>
      <point x="-554" y="1904" type="line"/>
    </contour>
  </outline>
</glyph>
<glyph name="brevecomb.case" format="2">
  <anchor x="-784" y="1398" name="_top"/>
  <anchor x="-694" y="1812" name="top"/>
  <outline>
    <contour>
      <point x="-714" y="1582" type="curve" smooth="yes"/>
      <point x="-522" y="1582"/>
      <point x="-362" y="1714"/>
      <point x="-350" y="1904" type="curve"/>
      <point x="-452" y="1904" type="line"/>
      <point x="-462" y="1766"/>
      <point x="-562" y="1676"/>
      <point x="-704" y="1676" type="curve" smooth="yes"/>
      <point x="-850" y="1676"/>
      <point x="-938" y="1758"/>
      <point x="-922" y="1904" type="curve"/>
      <point x="-1026" y="1904" type="line"/>
      <point x="-1042" y="1708"/>
      <point x="-918" y="1582"/>
    </contour>
  </outline>
</glyph>
<glyph name="caroncomb.alt" format="2">
  <anchor x="-165" y="1440" name="_caron"/>
  <outline>
    <contour>
      <point x="-189" y="1012" type="line"/>
      <point x="-111" y="1012" type="line"/>
      <point x="29" y="1440" type="line"/>
      <point x="-97" y="1440" type="line"/>
    </contour>
  </outline>
</glyph>
<glyph name="caroncomb.alt_case" format="2">
  <anchor x="-534" y="1440" name="_caron"/>
  <outline>
    <contour>
      <point x="-520" y="992" type="line"/>
      <point x="-434" y="992" type="line"/>
      <point x="-286" y="1440" type="line"/>
      <point x="-424" y="1440" type="line"/>
    </contour>
  </outline>
</glyph>
<glyph name="caroncomb.case" format="2">
  <anchor x="-784" y="1398" name="_top"/>
  <outline>
    <contour>
      <point x="-810" y="1592" type="line"/>
      <point x="-688" y="1592" type="line"/>
      <point x="-350" y="1904" type="line"/>
      <point x="-480" y="1904" type="line"/>
      <point x="-742" y="1668" type="line"/>
      <point x="-884" y="1904" type="line"/>
      <point x="-996" y="1904" type="line"/>
    </contour>
  </outline>
</glyph>
<glyph name="commaturnedabovecomb.case" format="2">
  <anchor x="-804" y="1398" name="_top"/>
  <outline>
    <contour>
      <point x="-728" y="1660" type="curve" smooth="yes"/>
      <point x="-674" y="1660"/>
      <point x="-628" y="1698"/>
      <point x="-628" y="1748" type="curve" smooth="yes"/>
      <point x="-628" y="1798"/>
      <point x="-666" y="1830"/>
      <point x="-716" y="1830" type="curve"/>
      <point x="-706" y="1874"/>
      <point x="-624" y="1918"/>
      <point x="-534" y="1956" type="curve"/>
      <point x="-578" y="2014" type="line"/>
      <point x="-700" y="1954"/>
      <point x="-824" y="1860"/>
      <point x="-824" y="1750" type="curve" smooth="yes"/>
      <point x="-824" y="1694"/>
      <point x="-786" y="1660"/>
    </contour>
  </outline>
</glyph>
<glyph name="dblgravecomb.narrow" format="2">
  <anchor x="-618" y="960" name="_top"/>
  <outline>
    <contour>
      <point x="-486" y="1170" type="line"/>
      <point x="-384" y="1170" type="line"/>
      <point x="-454" y="1504" type="line"/>
      <point x="-566" y="1504" type="line"/>
    </contour>
    <contour>
      <point x="-758" y="1170" type="line"/>
      <point x="-658" y="1170" type="line"/>
      <point x="-728" y="1504" type="line"/>
      <point x="-842" y="1504" type="line"/>
    </contour>
  </outline>
</glyph>
<glyph name="dieresiscomb.case" format="2">
  <anchor x="-764" y="1398" name="_top"/>
  <anchor x="-702" y="1704" name="top"/>
  <outline>
    <contour>
      <point x="-884" y="1584" type="curve" smooth="yes"/>
      <point x="-830" y="1584"/>
      <point x="-776" y="1630"/>
      <point x="-776" y="1682" type="curve" smooth="yes"/>
      <point x="-776" y="1730"/>
      <point x="-818" y="1766"/>
      <point x="-864" y="1766" type="curve" smooth="yes"/>
      <point x="-918" y="1766"/>
      <point x="-972" y="1720"/>
      <point x="-972" y="1668" type="curve" smooth="yes"/>
      <point x="-972" y="1624"/>
      <point x="-934" y="1584"/>
    </contour>
    <contour>
      <point x="-550" y="1584" type="curve" smooth="yes"/>
      <point x="-496" y="1584"/>
      <point x="-442" y="1630"/>
      <point x="-442" y="1682" type="curve" smooth="yes"/>
      <point x="-442" y="1728"/>
      <point x="-482" y="1766"/>
      <point x="-530" y="1766" type="curve" smooth="yes"/>
      <point x="-586" y="1766"/>
      <point x="-638" y="1720"/>
      <point x="-638" y="1668" type="curve" smooth="yes"/>
      <point x="-638" y="1624"/>
      <point x="-600" y="1584"/>
    </contour>
  </outline>
</glyph>
<glyph name="dieresiscomb.narrow" format="2">
  <anchor x="-648" y="960" name="_top"/>
  <anchor x="-580" y="1284" name="top"/>
  <outline>
    <contour>
      <point x="-720" y="1162" type="curve" smooth="yes"/>
      <point x="-666" y="1162"/>
      <point x="-612" y="1210"/>
      <point x="-612" y="1266" type="curve" smooth="yes"/>
      <point x="-612" y="1312"/>
      <point x="-648" y="1350"/>
      <point x="-696" y="1350" type="curve" smooth="yes"/>
      <point x="-750" y="1350"/>
      <point x="-804" y="1302"/>
      <point x="-804" y="1246" type="curve" smooth="yes"/>
      <point x="-804" y="1202"/>
      <point x="-768" y="1162"/>
    </contour>
    <contour>
      <point x="-476" y="1162" type="curve" smooth="yes"/>
      <point x="-422" y="1162"/>
      <point x="-368" y="1210"/>
      <point x="-368" y="1266" type="curve" smooth="yes"/>
      <point x="-368" y="1312"/>
      <point x="-404" y="1350"/>
      <point x="-452" y="1350" type="curve" smooth="yes"/>
      <point x="-506" y="1350"/>
      <point x="-560" y="1302"/>
      <point x="-560" y="1246" type="curve" smooth="yes"/>
      <point x="-560" y="1202"/>
      <point x="-524" y="1162"/>
    </contour>
  </outline>
</glyph>
<glyph name="dotaccentcomb.case" format="2">
  <anchor x="-592" y="1398" name="_top"/>
  <anchor x="-530" y="1704" name="top"/>
  <outline>
    <contour>
      <point x="-544" y="1584" type="curve" smooth="yes"/>
      <point x="-492" y="1584"/>
      <point x="-436" y="1630"/>
      <point x="-436" y="1684" type="curve" smooth="yes"/>
      <point x="-436" y="1730"/>
      <point x="-478" y="1766"/>
      <point x="-524" y="1766" type="curve" smooth="yes"/>
      <point x="-578" y="1766"/>
      <point x="-632" y="1722"/>
      <point x="-632" y="1668" type="curve" smooth="yes"/>
      <point x="-632" y="1624"/>
      <point x="-594" y="1584"/>
    </contour>
  </outline>
</glyph>
<glyph name="four.dnom" format="2">
  <advance width="846"/>
  <outline>
    <contour>
      <point x="426" y="0" type="line"/>
      <point x="522" y="0" type="line"/>
      <point x="564" y="196" type="line"/>
      <point x="718" y="196" type="line"/>
      <point x="738" y="288" type="line"/>
      <point x="582" y="288" type="line"/>
      <point x="628" y="504" type="line"/>
      <point x="532" y="504" type="line"/>
      <point x="486" y="288" type="line"/>
      <point x="124" y="288" type="line"/>
      <point x="614" y="910" type="line"/>
      <point x="498" y="910" type="line"/>
      <point x="4" y="280" type="line"/>
      <point x="-12" y="196" type="line"/>
      <point x="468" y="196" type="line"/>
    </contour>
  </outline>
</glyph>
<glyph name="ge-cy.loclBGR" format="2">
  <advance width="976"/>
  <anchor x="388" y="0" name="bottom"/>
  <anchor x="624" y="960" name="top"/>
  <outline>
    <contour>
      <point x="390" y="-30" type="curve" smooth="yes"/>
      <point x="518" y="-30"/>
      <point x="654" y="10"/>
      <point x="760" y="78" type="curve"/>
      <point x="784" y="210" type="line"/>
      <point x="680" y="128"/>
      <point x="540" y="78"/>
      <point x="410" y="78" type="curve" smooth="yes"/>
      <point x="276" y="78"/>
      <point x="200" y="122"/>
      <point x="200" y="218" type="curve" smooth="yes"/>
      <point x="200" y="334"/>
      <point x="338" y="392"/>
      <point x="502" y="444" type="curve" smooth="yes"/>
      <point x="720" y="512"/>
      <point x="910" y="588"/>
      <point x="910" y="766" type="curve" smooth="yes"/>
      <point x="910" y="916"/>
      <point x="786" y="1000"/>
      <point x="610" y="1000" type="curve" smooth="yes"/>
      <point x="490" y="1000"/>
      <point x="372" y="964"/>
      <point x="268" y="894" type="curve"/>
      <point x="244" y="762" type="line"/>
      <point x="338" y="840"/>
      <point x="476" y="892"/>
      <point x="602" y="892" type="curve" smooth="yes"/>
      <point x="716" y="892"/>
      <point x="790" y="850"/>
      <point x="790" y="756" type="curve" smooth="yes"/>
      <point x="790" y="646"/>
      <point x="658" y="588"/>
      <point x="490" y="536" type="curve" smooth="yes"/>
      <point x="258" y="464"/>
      <point x="80" y="388"/>
      <point x="80" y="198" type="curve" smooth="yes"/>
      <point x="80" y="48"/>
      <point x="218" y="-30"/>
    </contour>
  </outline>
</glyph>
<glyph name="gravecomb.case" format="2">
  <anchor x="-784" y="1398" name="_top"/>
  <outline>
    <contour>
      <point x="-768" y="1592" type="line"/>
      <point x="-658" y="1592" type="line"/>
      <point x="-788" y="1904" type="line"/>
      <point x="-910" y="1904" type="line"/>
    </contour>
  </outline>
</glyph>
<glyph name="hookabovecomb.narrow" format="2">
  <anchor x="-656" y="960" name="_top"/>
  <outline>
    <contour>
      <point x="-656" y="1170" type="curve"/>
      <point x="-570" y="1170" type="line"/>
      <point x="-584" y="1252"/>
      <point x="-570" y="1274"/>
      <point x="-486" y="1310" type="curve" smooth="yes"/>
      <point x="-400" y="1346"/>
      <point x="-334" y="1386"/>
      <point x="-334" y="1484" type="curve" smooth="yes"/>
      <point x="-334" y="1582"/>
      <point x="-436" y="1634"/>
      <point x="-556" y="1634" type="curve" smooth="yes"/>
      <point x="-608" y="1634"/>
      <point x="-664" y="1624"/>
      <point x="-710" y="1606" type="curve"/>
      <point x="-730" y="1520" type="line"/>
      <point x="-682" y="1540"/>
      <point x="-620" y="1550"/>
      <point x="-564" y="1550" type="curve" smooth="yes"/>
      <point x="-488" y="1550"/>
      <point x="-432" y="1514"/>
      <point x="-432" y="1460" type="curve" smooth="yes"/>
      <point x="-432" y="1402"/>
      <point x="-474" y="1384"/>
      <point x="-546" y="1360" type="curve" smooth="yes"/>
      <point x="-648" y="1326"/>
      <point x="-684" y="1270"/>
    </contour>
  </outline>
</glyph>
<glyph name="horncomb.alt" format="2">
  <anchor x="-108" y="960" name="_horn"/>
  <outline>
    <contour>
      <point x="-90" y="802" type="curve" smooth="yes"/>
      <point x="44" y="802"/>
      <point x="118" y="904"/>
      <point x="118" y="1012" type="curve" smooth="yes"/>
      <point x="118" y="1062"/>
      <point x="102" y="1116"/>
      <point x="68" y="1168" type="curve"/>
      <point x="-30" y="1128" type="line"/>
      <point x="-4" y="1080"/>
      <point x="10" y="1038"/>
      <point x="10" y="1002" type="curve" smooth="yes"/>
      <point x="10" y="940"/>
      <point x="-26" y="886"/>
      <point x="-96" y="886" type="curve" smooth="yes"/>
      <point x="-114" y="886"/>
      <point x="-138" y="890"/>
      <point x="-164" y="898" type="curve"/>
      <point x="-182" y="820" type="line"/>
      <point x="-146" y="810"/>
      <point x="-120" y="802"/>
    </contour>
  </outline>
</glyph>
<glyph name="horncomb.alt_case" format="2">
  <anchor x="-152" y="1400" name="_horn"/>
  <outline>
    <contour>
      <point x="-74" y="1186" type="curve" smooth="yes"/>
      <point x="60" y="1186"/>
      <point x="144" y="1290"/>
      <point x="144" y="1404" type="curve" smooth="yes"/>
      <point x="144" y="1452"/>
      <point x="131" y="1508"/>
      <point x="102" y="1558" type="curve"/>
      <point x="0" y="1558" type="line"/>
      <point x="29" y="1494"/>
      <point x="37" y="1439"/>
      <point x="35" y="1398" type="curve" smooth="yes"/>
      <point x="36" y="1324"/>
      <point x="-2" y="1270"/>
      <point x="-84" y="1270" type="curve" smooth="yes"/>
      <point x="-132" y="1270"/>
      <point x="-210" y="1304"/>
      <point x="-274" y="1342" type="curve"/>
      <point x="-288" y="1270" type="line"/>
      <point x="-222" y="1228"/>
      <point x="-144" y="1186"/>
    </contour>
  </outline>
</glyph>
<glyph name="nine.ss02" format="2">
  <advance width="1229"/>
  <outline>
    <contour>
      <point x="288" y="0" type="line"/>
      <point x="434" y="0" type="line"/>
      <point x="958" y="544" type="line" smooth="yes"/>
      <point x="1112" y="700"/>
      <point x="1226" y="832"/>
      <point x="1226" y="1020" type="curve" smooth="yes"/>
      <point x="1226" y="1242"/>
      <point x="1034" y="1430"/>
      <point x="764" y="1430" type="curve" smooth="yes"/>
      <point x="472" y="1430"/>
      <point x="226" y="1210"/>
      <point x="226" y="932" type="curve" smooth="yes"/>
      <point x="226" y="710"/>
      <point x="412" y="538"/>
      <point x="676" y="538" type="curve" smooth="yes"/>
      <point x="748" y="538"/>
      <point x="822" y="552"/>
      <point x="878" y="584" type="curve"/>
      <point x="886" y="606" type="line"/>
    </contour>
    <contour>
      <point x="694" y="640" type="curve" smooth="yes"/>
      <point x="492" y="640"/>
      <point x="352" y="772"/>
      <point x="352" y="948" type="curve" smooth="yes"/>
      <point x="352" y="1154"/>
      <point x="526" y="1318"/>
      <point x="748" y="1318" type="curve" smooth="yes"/>
      <point x="958" y="1318"/>
      <point x="1100" y="1190"/>
      <point x="1100" y="1012" type="curve" smooth="yes"/>
      <point x="1100" y="796"/>
      <point x="916" y="640"/>
    </contour>
  </outline>
</glyph>
<glyph name="one.numr" format="2">
  <advance width="586"/>
  <outline>
    <contour>
      <point x="340" y="490" type="line"/>
      <point x="440" y="490" type="line"/>
      <point x="636" y="1420" type="line"/>
      <point x="628" y="1420" type="line"/>
      <point x="250" y="1292" type="line"/>
      <point x="230" y="1200" type="line"/>
      <point x="510" y="1290" type="line"/>
    </contour>
  </outline>
</glyph>
<glyph name="ringcomb.case" format="2">
  <anchor x="-908" y="1400" name="_top"/>
  <anchor x="-804" y="1888" name="top"/>
  <outline>
    <contour>
      <point x="-866" y="1462" type="curve" smooth="yes"/>
      <point x="-706" y="1462"/>
      <point x="-558" y="1588"/>
      <point x="-558" y="1752" type="curve" smooth="yes"/>
      <point x="-558" y="1884"/>
      <point x="-668" y="1990"/>
      <point x="-810" y="1990" type="curve" smooth="yes"/>
      <point x="-966" y="1990"/>
      <point x="-1118" y="1864"/>
      <point x="-1118" y="1700" type="curve" smooth="yes"/>
      <point x="-1118" y="1566"/>
      <point x="-1006" y="1462"/>
    </contour>
    <contour>
      <point x="-854" y="1554" type="curve" smooth="yes"/>
      <point x="-952" y="1554"/>
      <point x="-1020" y="1618"/>
      <point x="-1020" y="1708" type="curve" smooth="yes"/>
      <point x="-1020" y="1818"/>
      <point x="-930" y="1898"/>
      <point x="-822" y="1898" type="curve" smooth="yes"/>
      <point x="-724" y="1898"/>
      <point x="-656" y="1834"/>
      <point x="-656" y="1746" type="curve" smooth="yes"/>
      <point x="-656" y="1636"/>
      <point x="-746" y="1554"/>
    </contour>
  </outline>
</glyph>
<glyph name="sha-cy.loclBGR" format="2">
  <advance width="1799"/>
  <anchor x="1527" y="0" name="descender"/>
  <anchor x="997" y="960" name="top"/>
  <outline>
    <contour>
      <point x="419" y="-30" type="curve" smooth="yes"/>
      <point x="553" y="-30"/>
      <point x="687" y="32"/>
      <point x="817" y="188" type="curve"/>
      <point x="825" y="72"/>
      <point x="917" y="-30"/>
      <point x="1093" y="-30" type="curve" smooth="yes"/>
      <point x="1227" y="-30"/>
      <point x="1351" y="40"/>
      <point x="1447" y="158" type="curve"/>
      <point x="1415" y="0" type="line"/>
      <point x="1527" y="0" type="line"/>
      <point x="1739" y="1000" type="line"/>
      <point x="1597" y="858" type="line"/>
      <point x="1497" y="390" type="line" smooth="yes"/>
      <point x="1455" y="192"/>
      <point x="1301" y="78"/>
      <point x="1137" y="78" type="curve" smooth="yes"/>
      <point x="969" y="78"/>
      <point x="887" y="182"/>
      <point x="923" y="348" type="curve" smooth="yes"/>
      <point x="1061" y="1000" type="line"/>
      <point x="919" y="858" type="line"/>
      <point x="819" y="390" type="line" smooth="yes"/>
      <point x="777" y="192"/>
      <point x="623" y="78"/>
      <point x="459" y="78" type="curve" smooth="yes"/>
      <point x="291" y="78"/>
      <point x="209" y="182"/>
      <point x="245" y="348" type="curve" smooth="yes"/>
      <point x="383" y="1000" type="line"/>
      <point x="241" y="858" type="line"/>
      <point x="125" y="314" type="line" smooth="yes"/>
      <point x="83" y="116"/>
      <point x="211" y="-30"/>
    </contour>
  </outline>
</glyph>
<glyph name="six.ss02" format="2">
  <advance width="1280"/>
  <guideline x="181" y="417" angle="0"/>
  <outline>
    <contour>
      <point x="592" y="-30" type="curve" smooth="yes"/>
      <point x="890" y="-30"/>
      <point x="1146" y="194"/>
      <point x="1146" y="476" type="curve" smooth="yes"/>
      <point x="1146" y="716"/>
      <point x="934" y="880"/>
      <point x="688" y="880" type="curve" smooth="yes"/>
      <point x="622" y="880"/>
      <point x="544" y="860"/>
      <point x="474" y="822" type="curve"/>
      <point x="470" y="802" type="line"/>
      <point x="1052" y="1400" type="line"/>
      <point x="902" y="1400" type="line"/>
      <point x="362" y="834" type="line" smooth="yes"/>
      <point x="246" y="714"/>
      <point x="122" y="544"/>
      <point x="122" y="380" type="curve" smooth="yes"/>
      <point x="122" y="150"/>
      <point x="318" y="-30"/>
    </contour>
    <contour>
      <point x="610" y="84" type="curve" smooth="yes"/>
      <point x="396" y="84"/>
      <point x="250" y="216"/>
      <point x="250" y="394" type="curve" smooth="yes"/>
      <point x="250" y="618"/>
      <point x="442" y="778"/>
      <point x="670" y="778" type="curve" smooth="yes"/>
      <point x="876" y="778"/>
      <point x="1020" y="642"/>
      <point x="1020" y="462" type="curve" smooth="yes"/>
      <point x="1020" y="240"/>
      <point x="834" y="84"/>
    </contour>
  </outline>
</glyph>
<glyph name="tildecomb.case" format="2">
  <anchor x="-784" y="1398" name="_top"/>
  <anchor x="-708" y="1758" name="top"/>
  <outline>
    <contour>
      <point x="-1010" y="1632" type="line"/>
      <point x="-970" y="1704"/>
      <point x="-926" y="1748"/>
      <point x="-862" y="1748" type="curve" smooth="yes"/>
      <point x="-768" y="1748"/>
      <point x="-686" y="1652"/>
      <point x="-564" y="1652" type="curve" smooth="yes"/>
      <point x="-478" y="1652"/>
      <point x="-394" y="1712"/>
      <point x="-336" y="1816" type="curve"/>
      <point x="-408" y="1864" type="line"/>
      <point x="-444" y="1792"/>
      <point x="-498" y="1748"/>
      <point x="-556" y="1748" type="curve" smooth="yes"/>
      <point x="-650" y="1748"/>
      <point x="-732" y="1846"/>
      <point x="-854" y="1846" type="curve" smooth="yes"/>
      <point x="-944" y="1846"/>
      <point x="-1026" y="1782"/>
      <point x="-1082" y="1678" type="curve"/>
    </contour>
  </outline>
</glyph>
<glyph name="tildecomb.narrow" format="2">
  <anchor x="-636" y="960" name="_top"/>
  <anchor x="-554" y="1344" name="top"/>
  <outline>
    <contour>
      <point x="-853" y="1246" type="line"/>
      <point x="-808" y="1302"/>
      <point x="-755" y="1330"/>
      <point x="-694" y="1330" type="curve" smooth="yes"/>
      <point x="-615" y="1330"/>
      <point x="-526" y="1246"/>
      <point x="-434" y="1246" type="curve" smooth="yes"/>
      <point x="-379" y="1246"/>
      <point x="-328" y="1270"/>
      <point x="-284" y="1314" type="curve"/>
      <point x="-258" y="1430" type="line"/>
      <point x="-303" y="1374"/>
      <point x="-355" y="1346"/>
      <point x="-417" y="1346" type="curve" smooth="yes"/>
      <point x="-496" y="1346"/>
      <point x="-585" y="1430"/>
      <point x="-677" y="1430" type="curve" smooth="yes"/>
      <point x="-732" y="1430"/>
      <point x="-783" y="1406"/>
      <point x="-827" y="1362" type="curve"/>
    </contour>
  </outline>
</glyph>
<glyph name="tonos.case" format="2">
  <advance width="433"/>
  <anchor x="601" y="1400" name="_topleft"/>
  <outline>
    <contour>
      <point x="281" y="1158" type="line"/>
      <point x="389" y="1158" type="line"/>
      <point x="577" y="1470" type="line"/>
      <point x="457" y="1470" type="line"/>
    </contour>
  </outline>
</glyph>
<glyph name="ve-cy.loclBGR" format="2">
  <advance width="1158"/>
  <outline>
    <contour>
      <point x="510" y="-28" type="curve" smooth="yes"/>
      <point x="800" y="-28"/>
      <point x="1040" y="172"/>
      <point x="1040" y="440" type="curve" smooth="yes"/>
      <point x="1040" y="592"/>
      <point x="954" y="708"/>
      <point x="822" y="752" type="curve"/>
      <point x="998" y="792"/>
      <point x="1154" y="982"/>
      <point x="1154" y="1166" type="curve" smooth="yes"/>
      <point x="1154" y="1360"/>
      <point x="1002" y="1472"/>
      <point x="794" y="1472" type="curve" smooth="yes"/>
      <point x="534" y="1472"/>
      <point x="332" y="1294"/>
      <point x="266" y="990" type="curve" smooth="yes"/>
      <point x="146" y="432" type="line" smooth="yes"/>
      <point x="82" y="136"/>
      <point x="246" y="-28"/>
    </contour>
    <contour>
      <point x="530" y="80" type="curve" smooth="yes"/>
      <point x="318" y="80"/>
      <point x="210" y="216"/>
      <point x="256" y="428" type="curve" smooth="yes"/>
      <point x="378" y="990" type="line" smooth="yes"/>
      <point x="432" y="1240"/>
      <point x="566" y="1364"/>
      <point x="768" y="1364" type="curve" smooth="yes"/>
      <point x="922" y="1364"/>
      <point x="1028" y="1288"/>
      <point x="1028" y="1138" type="curve" smooth="yes"/>
      <point x="1028" y="938"/>
      <point x="836" y="800"/>
      <point x="624" y="800" type="curve" smooth="yes"/>
      <point x="310" y="800" type="line"/>
      <point x="288" y="694" type="line"/>
      <point x="612" y="694" type="line" smooth="yes"/>
      <point x="806" y="694"/>
      <point x="914" y="586"/>
      <point x="914" y="426" type="curve" smooth="yes"/>
      <point x="914" y="220"/>
      <point x="764" y="80"/>
    </contour>
  </outline>
</glyph>
<glyph name="ze-cy.loclBGR" format="2">
  <advance width="996"/>
  <anchor x="234" y="-420" name="bottom"/>
  <anchor x="514" y="960" name="top"/>
  <outline>
    <contour>
      <point x="272" y="-448" type="curve" smooth="yes"/>
      <point x="556" y="-448"/>
      <point x="758" y="-280"/>
      <point x="758" y="-46" type="curve" smooth="yes"/>
      <point x="758" y="108"/>
      <point x="672" y="240"/>
      <point x="530" y="290" type="curve"/>
      <point x="680" y="316"/>
      <point x="866" y="462"/>
      <point x="866" y="664" type="curve" smooth="yes"/>
      <point x="866" y="854"/>
      <point x="704" y="988"/>
      <point x="486" y="988" type="curve" smooth="yes"/>
      <point x="356" y="988"/>
      <point x="240" y="956"/>
      <point x="140" y="896" type="curve"/>
      <point x="114" y="772" type="line"/>
      <point x="212" y="842"/>
      <point x="330" y="880"/>
      <point x="468" y="880" type="curve" smooth="yes"/>
      <point x="630" y="880"/>
      <point x="746" y="794"/>
      <point x="746" y="638" type="curve" smooth="yes"/>
      <point x="746" y="456"/>
      <point x="586" y="346"/>
      <point x="360" y="346" type="curve" smooth="yes"/>
      <point x="174" y="346" type="line"/>
      <point x="128" y="242" type="line"/>
      <point x="326" y="242" type="line" smooth="yes"/>
      <point x="510" y="242"/>
      <point x="636" y="124"/>
      <point x="636" y="-46" type="curve" smooth="yes"/>
      <point x="636" y="-228"/>
      <point x="506" y="-340"/>
      <point x="292" y="-340" type="curve" smooth="yes"/>
      <point x="136" y="-340"/>
      <point x="-12" y="-280"/>
      <point x="-100" y="-180" type="curve"/>
      <point x="-126" y="-302" type="line"/>
      <point x="-24" y="-390"/>
      <point x="134" y="-448"/>
    </contour>
  </outline>
</glyph>
